<svg xmlns="http://www.w3.org/2000/svg" xmlns:xlink="http://www.w3.org/1999/xlink" width="2690pt" height="581pt" viewBox="0.00 0.00 2690.00 581.00">
<g id="graph0" class="graph" transform="scale(1 1) rotate(0) translate(4 577.03)">
<title>Task4Cupryniak</title>
<polygon fill="white" stroke="none" points="-4,4 -4,-577.03 2686.3,-577.03 2686.3,4 -4,4"/>
<!-- start -->
<g id="node1" class="node">
<title>start</title>
<ellipse fill="black" stroke="black" cx="1.8" cy="-271.06" rx="1.8" ry="1.8"/>
</g>
<!-- qMarkStartOfC -->
<g id="node4" class="node">
<title>qMarkStartOfC</title>
<ellipse fill="none" stroke="black" cx="87.97" cy="-271.06" rx="47.37" ry="47.37"/>
<text xml:space="preserve" text-anchor="middle" x="87.97" y="-268.06" font-family="Times,serif" font-size="10.00">qMarkStartOfC</text>
</g>
<!-- start&#45;&gt;qMarkStartOfC -->
<g id="edge1" class="edge">
<title>start-&gt;qMarkStartOfC</title>
<path fill="none" stroke="black" d="M3.99,-271.06C7.29,-271.06 17.12,-271.06 28.91,-271.06"/>
<polygon fill="black" stroke="black" points="28.65,-274.56 38.65,-271.06 28.65,-267.56 28.65,-274.56"/>
</g>
<!-- qAccept -->
<g id="node2" class="node">
<title>qAccept</title>
<ellipse fill="none" stroke="green" cx="2392.07" cy="-499.06" rx="29.66" ry="29.66"/>
<ellipse fill="none" stroke="green" cx="2392.07" cy="-499.06" rx="33.66" ry="33.66"/>
<text xml:space="preserve" text-anchor="middle" x="2392.07" y="-496.06" font-family="Times,serif" font-size="10.00">qAccept</text>
</g>
<!-- qReject -->
<g id="node3" class="node">
<title>qReject</title>
<ellipse fill="none" stroke="red" cx="2392.07" cy="-390.06" rx="27.99" ry="27.99"/>
<ellipse fill="none" stroke="red" cx="2392.07" cy="-390.06" rx="31.99" ry="31.99"/>
<text xml:space="preserve" text-anchor="middle" x="2392.07" y="-387.06" font-family="Times,serif" font-size="10.00">qReject</text>
</g>
<!-- qMarkingS -->
<g id="node5" class="node">
<title>qMarkingS</title>
<ellipse fill="none" stroke="black" cx="280.73" cy="-271.06" rx="36.68" ry="36.68"/>
<text xml:space="preserve" text-anchor="middle" x="280.73" y="-268.06" font-family="Times,serif" font-size="10.00">qMarkingS</text>
</g>
<!-- qMarkStartOfC&#45;&gt;qMarkingS -->
<g id="edge2" class="edge">
<title>qMarkStartOfC-&gt;qMarkingS</title>
<path fill="none" stroke="black" d="M135.63,-271.06C165.04,-271.06 202.9,-271.06 232.43,-271.06"/>
<polygon fill="black" stroke="black" points="232.19,-274.56 242.19,-271.06 232.19,-267.56 232.19,-274.56"/>
<text xml:space="preserve" text-anchor="middle" x="189.69" y="-283.06" font-family="Times,serif" font-size="8.00">(1,_,_) → (1,_,_ ; &lt;,-,-)</text>
<text xml:space="preserve" text-anchor="middle" x="189.69" y="-273.46" font-family="Times,serif" font-size="8.00">(0,_,_) → (0,_,_ ; &lt;,-,-)</text>
</g>
<!-- qStart -->
<g id="node6" class="node">
<title>qStart</title>
<ellipse fill="none" stroke="black" cx="450.57" cy="-271.06" rx="23.99" ry="23.99"/>
<text xml:space="preserve" text-anchor="middle" x="450.57" y="-268.06" font-family="Times,serif" font-size="10.00">qStart</text>
</g>
<!-- qMarkingS&#45;&gt;qStart -->
<g id="edge3" class="edge">
<title>qMarkingS-&gt;qStart</title>
<path fill="none" stroke="black" d="M317.74,-271.06C346.56,-271.06 386.73,-271.06 415.13,-271.06"/>
<polygon fill="black" stroke="black" points="415,-274.56 425,-271.06 415,-267.56 415,-274.56"/>
<text xml:space="preserve" text-anchor="middle" x="372" y="-273.46" font-family="Times,serif" font-size="8.00">(_,_,_) → (S,_,_ ; &gt;,-,-)</text>
</g>
<!-- qStart&#45;&gt;qStart -->
<g id="edge4" class="edge">
<title>qStart-&gt;qStart</title>
<path fill="none" stroke="black" d="M436.65,-290.93C433.8,-302.38 438.45,-313.04 450.57,-313.04 458.52,-313.04 463.26,-308.45 464.77,-302.06"/>
<polygon fill="black" stroke="black" points="468.28,-302.35 464.53,-292.44 461.28,-302.52 468.28,-302.35"/>
<text xml:space="preserve" text-anchor="middle" x="450.57" y="-325.04" font-family="Times,serif" font-size="8.00">(0,_,_) → (0,_,_ ; &gt;,-,-)</text>
<text xml:space="preserve" text-anchor="middle" x="450.57" y="-315.44" font-family="Times,serif" font-size="8.00">(1,_,_) → (1,_,_ ; &gt;,-,-)</text>
</g>
<!-- qCopyA -->
<g id="node7" class="node">
<title>qCopyA</title>
<ellipse fill="none" stroke="black" cx="613.79" cy="-271.06" rx="30" ry="30"/>
<text xml:space="preserve" text-anchor="middle" x="613.79" y="-268.06" font-family="Times,serif" font-size="10.00">qCopyA</text>
</g>
<!-- qStart&#45;&gt;qCopyA -->
<g id="edge5" class="edge">
<title>qStart-&gt;qCopyA</title>
<path fill="none" stroke="black" d="M475.01,-271.06C500.41,-271.06 541.41,-271.06 572.09,-271.06"/>
<polygon fill="black" stroke="black" points="571.78,-274.56 581.78,-271.06 571.78,-267.56 571.78,-274.56"/>
<text xml:space="preserve" text-anchor="middle" x="529.17" y="-273.46" font-family="Times,serif" font-size="8.00">(=,_,_) → (_,_,_ ; &gt;,-,-)</text>
</g>
<!-- qCopyA&#45;&gt;qCopyA -->
<g id="edge6" class="edge">
<title>qCopyA-&gt;qCopyA</title>
<path fill="none" stroke="black" d="M598.21,-297.22C596.73,-308.93 601.92,-319.06 613.79,-319.06 621.57,-319.06 626.49,-314.7 628.53,-308.39"/>
<polygon fill="black" stroke="black" points="631.99,-308.97 629.25,-298.73 625.01,-308.44 631.99,-308.97"/>
<text xml:space="preserve" text-anchor="middle" x="613.79" y="-331.06" font-family="Times,serif" font-size="8.00">(0,_,_) → (_,0,_ ; &gt;,&gt;,-)</text>
<text xml:space="preserve" text-anchor="middle" x="613.79" y="-321.46" font-family="Times,serif" font-size="8.00">(1,_,_) → (_,1,_ ; &gt;,&gt;,-)</text>
</g>
<!-- qCopyB -->
<g id="node8" class="node">
<title>qCopyB</title>
<ellipse fill="none" stroke="black" cx="782.25" cy="-271.06" rx="29.67" ry="29.67"/>
<text xml:space="preserve" text-anchor="middle" x="782.25" y="-268.06" font-family="Times,serif" font-size="10.00">qCopyB</text>
</g>
<!-- qCopyA&#45;&gt;qCopyB -->
<g id="edge7" class="edge">
<title>qCopyA-&gt;qCopyB</title>
<path fill="none" stroke="black" d="M644.16,-271.06C671.02,-271.06 711,-271.06 740.86,-271.06"/>
<polygon fill="black" stroke="black" points="740.65,-274.56 750.65,-271.06 740.65,-267.56 740.65,-274.56"/>
<text xml:space="preserve" text-anchor="middle" x="698.18" y="-273.46" font-family="Times,serif" font-size="8.00">(/,_,_) → (_,_,_ ; &gt;,&gt;,-)</text>
</g>
<!-- qCopyB&#45;&gt;qCopyB -->
<g id="edge8" class="edge">
<title>qCopyB-&gt;qCopyB</title>
<path fill="none" stroke="black" d="M766.8,-296.56C765.12,-308.39 770.27,-318.73 782.25,-318.73 790.11,-318.73 795.03,-314.27 797.01,-307.87"/>
<polygon fill="black" stroke="black" points="800.49,-308.26 797.6,-298.07 793.5,-307.84 800.49,-308.26"/>
<text xml:space="preserve" text-anchor="middle" x="782.25" y="-330.73" font-family="Times,serif" font-size="8.00">(1,_,_) → (_,_,1 ; &gt;,-,&gt;)</text>
<text xml:space="preserve" text-anchor="middle" x="782.25" y="-321.13" font-family="Times,serif" font-size="8.00">(0,_,_) → (_,_,0 ; &gt;,-,&gt;)</text>
</g>
<!-- qAlign -->
<g id="node9" class="node">
<title>qAlign</title>
<ellipse fill="none" stroke="black" cx="946.96" cy="-271.06" rx="26.33" ry="26.33"/>
<text xml:space="preserve" text-anchor="middle" x="946.96" y="-268.06" font-family="Times,serif" font-size="10.00">qAlign</text>
</g>
<!-- qCopyB&#45;&gt;qAlign -->
<g id="edge9" class="edge">
<title>qCopyB-&gt;qAlign</title>
<path fill="none" stroke="black" d="M812.34,-271.06C839.33,-271.06 879.64,-271.06 908.92,-271.06"/>
<polygon fill="black" stroke="black" points="908.82,-274.56 918.82,-271.06 908.82,-267.56 908.82,-274.56"/>
<text xml:space="preserve" text-anchor="middle" x="866.28" y="-273.46" font-family="Times,serif" font-size="8.00">(_,_,_) → (_,_,_ ; -,-,&lt;)</text>
</g>
<!-- qAlign&#45;&gt;qAlign -->
<g id="edge10" class="edge">
<title>qAlign-&gt;qAlign</title>
<path fill="none" stroke="black" d="M941.94,-297.01C941.71,-307.04 943.39,-315.38 946.96,-315.38 949.03,-315.38 950.46,-312.59 951.25,-308.3"/>
<polygon fill="black" stroke="black" points="954.73,-308.72 951.89,-298.52 947.75,-308.27 954.73,-308.72"/>
<text xml:space="preserve" text-anchor="middle" x="946.96" y="-327.38" font-family="Times,serif" font-size="8.00">(_,_,1) → (_,_,1 ; &lt;,&lt;,-)</text>
<text xml:space="preserve" text-anchor="middle" x="946.96" y="-317.78" font-family="Times,serif" font-size="8.00">(_,_,0) → (_,_,0 ; &lt;,&lt;,-)</text>
</g>
<!-- qAlign&#45;&gt;qAlign -->
<g id="edge11" class="edge">
<title>qAlign-&gt;qAlign</title>
<path fill="none" stroke="black" d="M938.07,-296.32C934.96,-315.28 937.93,-334.58 946.96,-334.58 954.16,-334.58 957.51,-322.33 957,-307.75"/>
<polygon fill="black" stroke="black" points="960.48,-307.43 956,-297.82 953.52,-308.12 960.48,-307.43"/>
<text xml:space="preserve" text-anchor="middle" x="946.96" y="-336.98" font-family="Times,serif" font-size="8.00">(1,_,_) → (1,_,_ ; -,&gt;,&gt;)</text>
</g>
<!-- qAlign&#45;&gt;qAlign -->
<g id="edge12" class="edge">
<title>qAlign-&gt;qAlign</title>
<path fill="none" stroke="black" d="M935.61,-295.09C928.05,-321.78 931.83,-352.58 946.96,-352.58 960.02,-352.58 964.63,-329.63 960.77,-306.18"/>
<polygon fill="black" stroke="black" points="964.22,-305.57 958.64,-296.57 957.39,-307.09 964.22,-305.57"/>
<text xml:space="preserve" text-anchor="middle" x="946.96" y="-383.78" font-family="Times,serif" font-size="8.00">(_,1,1) → (_,1,1 ; &lt;,-,-)</text>
<text xml:space="preserve" text-anchor="middle" x="946.96" y="-374.18" font-family="Times,serif" font-size="8.00">(_,0,1) → (_,0,1 ; &lt;,-,-)</text>
<text xml:space="preserve" text-anchor="middle" x="946.96" y="-364.58" font-family="Times,serif" font-size="8.00">(_,1,0) → (_,1,0 ; &lt;,-,-)</text>
<text xml:space="preserve" text-anchor="middle" x="946.96" y="-354.98" font-family="Times,serif" font-size="8.00">(_,0,0) → (_,0,0 ; &lt;,-,-)</text>
</g>
<!-- qMarkResult -->
<g id="node10" class="node">
<title>qMarkResult</title>
<ellipse fill="none" stroke="black" cx="1124.87" cy="-271.06" rx="41.02" ry="41.02"/>
<text xml:space="preserve" text-anchor="middle" x="1124.87" y="-268.06" font-family="Times,serif" font-size="10.00">qMarkResult</text>
</g>
<!-- qAlign&#45;&gt;qMarkResult -->
<g id="edge13" class="edge">
<title>qAlign-&gt;qMarkResult</title>
<path fill="none" stroke="black" d="M973.54,-271.06C999.37,-271.06 1039.98,-271.06 1072.49,-271.06"/>
<polygon fill="black" stroke="black" points="1072.09,-274.56 1082.09,-271.06 1072.09,-267.56 1072.09,-274.56"/>
<text xml:space="preserve" text-anchor="middle" x="1028.57" y="-340.66" font-family="Times,serif" font-size="8.00">(1,0,1) → (1,0,1 ; &gt;,&lt;,-)</text>
<text xml:space="preserve" text-anchor="middle" x="1028.57" y="-331.06" font-family="Times,serif" font-size="8.00">(1,0,0) → (1,0,0 ; &gt;,&lt;,-)</text>
<text xml:space="preserve" text-anchor="middle" x="1028.57" y="-321.46" font-family="Times,serif" font-size="8.00">(1,1,1) → (1,1,1 ; &gt;,&lt;,-)</text>
<text xml:space="preserve" text-anchor="middle" x="1028.57" y="-311.86" font-family="Times,serif" font-size="8.00">(1,1,0) → (1,1,0 ; &gt;,&lt;,-)</text>
<text xml:space="preserve" text-anchor="middle" x="1028.57" y="-302.26" font-family="Times,serif" font-size="8.00">(0,0,1) → (0,0,1 ; &gt;,&lt;,-)</text>
<text xml:space="preserve" text-anchor="middle" x="1028.57" y="-292.66" font-family="Times,serif" font-size="8.00">(0,0,0) → (0,0,0 ; &gt;,&lt;,-)</text>
<text xml:space="preserve" text-anchor="middle" x="1028.57" y="-283.06" font-family="Times,serif" font-size="8.00">(0,1,0) → (0,1,0 ; &gt;,&lt;,-)</text>
<text xml:space="preserve" text-anchor="middle" x="1028.57" y="-273.46" font-family="Times,serif" font-size="8.00">(0,1,1) → (0,1,1 ; &gt;,&lt;,-)</text>
</g>
<!-- qMarkResult&#45;&gt;qMarkResult -->
<g id="edge14" class="edge">
<title>qMarkResult-&gt;qMarkResult</title>
<path fill="none" stroke="black" d="M1106.87,-308.23C1106.96,-320.39 1112.96,-330.08 1124.87,-330.08 1132.88,-330.08 1138.21,-325.71 1140.88,-319.15"/>
<polygon fill="black" stroke="black" points="1144.25,-320.19 1142.61,-309.72 1137.36,-318.93 1144.25,-320.19"/>
<text xml:space="preserve" text-anchor="middle" x="1124.87" y="-380.48" font-family="Times,serif" font-size="8.00">(_,0,0) → (_,0,0 ; -,&lt;,-)</text>
<text xml:space="preserve" text-anchor="middle" x="1124.87" y="-370.88" font-family="Times,serif" font-size="8.00">(_,0,1) → (_,0,1 ; -,&lt;,-)</text>
<text xml:space="preserve" text-anchor="middle" x="1124.87" y="-361.28" font-family="Times,serif" font-size="8.00">(_,0,_) → (_,0,_ ; -,&lt;,-)</text>
<text xml:space="preserve" text-anchor="middle" x="1124.87" y="-351.68" font-family="Times,serif" font-size="8.00">(_,1,_) → (_,1,_ ; -,&lt;,-)</text>
<text xml:space="preserve" text-anchor="middle" x="1124.87" y="-342.08" font-family="Times,serif" font-size="8.00">(_,1,1) → (_,1,1 ; -,&lt;,-)</text>
<text xml:space="preserve" text-anchor="middle" x="1124.87" y="-332.48" font-family="Times,serif" font-size="8.00">(_,1,0) → (_,1,0 ; -,&lt;,-)</text>
</g>
<!-- qMarkResult0 -->
<g id="node11" class="node">
<title>qMarkResult0</title>
<ellipse fill="none" stroke="black" cx="1319.98" cy="-271.06" rx="44.03" ry="44.03"/>
<text xml:space="preserve" text-anchor="middle" x="1319.98" y="-268.06" font-family="Times,serif" font-size="10.00">qMarkResult0</text>
</g>
<!-- qMarkResult&#45;&gt;qMarkResult0 -->
<g id="edge15" class="edge">
<title>qMarkResult-&gt;qMarkResult0</title>
<path fill="none" stroke="black" d="M1166.36,-271.06C1194.82,-271.06 1233.24,-271.06 1264.41,-271.06"/>
<polygon fill="black" stroke="black" points="1264.02,-274.56 1274.02,-271.06 1264.02,-267.56 1264.02,-274.56"/>
<text xml:space="preserve" text-anchor="middle" x="1220.92" y="-283.06" font-family="Times,serif" font-size="8.00">(_,_,1) → (_,R,1 ; -,&lt;,-)</text>
<text xml:space="preserve" text-anchor="middle" x="1220.92" y="-273.46" font-family="Times,serif" font-size="8.00">(_,_,0) → (_,R,0 ; -,&lt;,-)</text>
</g>
<!-- qFindStartAgain -->
<g id="node12" class="node">
<title>qFindStartAgain</title>
<ellipse fill="none" stroke="black" cx="1522.43" cy="-271.06" rx="49.71" ry="49.71"/>
<text xml:space="preserve" text-anchor="middle" x="1522.43" y="-268.06" font-family="Times,serif" font-size="10.00">qFindStartAgain</text>
</g>
<!-- qMarkResult0&#45;&gt;qFindStartAgain -->
<g id="edge16" class="edge">
<title>qMarkResult0-&gt;qFindStartAgain</title>
<path fill="none" stroke="black" d="M1364.47,-271.06C1392.78,-271.06 1430.08,-271.06 1461.22,-271.06"/>
<polygon fill="black" stroke="black" points="1460.88,-274.56 1470.88,-271.06 1460.88,-267.56 1460.88,-274.56"/>
<text xml:space="preserve" text-anchor="middle" x="1418.37" y="-283.06" font-family="Times,serif" font-size="8.00">(_,_,1) → (_,0,1 ; -,&gt;,-)</text>
<text xml:space="preserve" text-anchor="middle" x="1418.37" y="-273.46" font-family="Times,serif" font-size="8.00">(_,_,0) → (_,0,0 ; -,&gt;,-)</text>
</g>
<!-- qFindStartAgain&#45;&gt;qFindStartAgain -->
<g id="edge17" class="edge">
<title>qFindStartAgain-&gt;qFindStartAgain</title>
<path fill="none" stroke="black" d="M1503.09,-317.26C1504.2,-329.5 1510.65,-338.77 1522.43,-338.77 1530.36,-338.77 1535.86,-334.58 1538.96,-328.12"/>
<polygon fill="black" stroke="black" points="1542.28,-329.28 1541.4,-318.73 1535.5,-327.53 1542.28,-329.28"/>
<text xml:space="preserve" text-anchor="middle" x="1522.43" y="-389.17" font-family="Times,serif" font-size="8.00">(_,1,1) → (_,1,1 ; -,&gt;,-)</text>
<text xml:space="preserve" text-anchor="middle" x="1522.43" y="-379.57" font-family="Times,serif" font-size="8.00">(_,1,0) → (_,1,0 ; -,&gt;,-)</text>
<text xml:space="preserve" text-anchor="middle" x="1522.43" y="-369.97" font-family="Times,serif" font-size="8.00">(_,0,1) → (_,0,1 ; -,&gt;,-)</text>
<text xml:space="preserve" text-anchor="middle" x="1522.43" y="-360.37" font-family="Times,serif" font-size="8.00">(_,R,1) → (_,R,1 ; -,&gt;,-)</text>
<text xml:space="preserve" text-anchor="middle" x="1522.43" y="-350.77" font-family="Times,serif" font-size="8.00">(_,R,0) → (_,R,0 ; -,&gt;,-)</text>
<text xml:space="preserve" text-anchor="middle" x="1522.43" y="-341.17" font-family="Times,serif" font-size="8.00">(_,0,0) → (_,0,0 ; -,&gt;,-)</text>
</g>
<!-- qSubstract -->
<g id="node13" class="node">
<title>qSubstract</title>
<ellipse fill="none" stroke="black" cx="1715.87" cy="-271.06" rx="35.01" ry="35.01"/>
<text xml:space="preserve" text-anchor="middle" x="1715.87" y="-268.06" font-family="Times,serif" font-size="10.00">qSubstract</text>
</g>
<!-- qFindStartAgain&#45;&gt;qSubstract -->
<g id="edge18" class="edge">
<title>qFindStartAgain-&gt;qSubstract</title>
<path fill="none" stroke="black" d="M1572.24,-271.06C1602.16,-271.06 1640.22,-271.06 1669.49,-271.06"/>
<polygon fill="black" stroke="black" points="1669.13,-274.56 1679.13,-271.06 1669.13,-267.56 1669.13,-274.56"/>
<text xml:space="preserve" text-anchor="middle" x="1626.5" y="-283.06" font-family="Times,serif" font-size="8.00">(_,_,1) → (_,_,1 ; -,&lt;,-)</text>
<text xml:space="preserve" text-anchor="middle" x="1626.5" y="-273.46" font-family="Times,serif" font-size="8.00">(_,_,0) → (_,_,0 ; -,&lt;,-)</text>
</g>
<!-- qSubstract&#45;&gt;qSubstract -->
<g id="edge19" class="edge">
<title>qSubstract-&gt;qSubstract</title>
<path fill="none" stroke="black" d="M1699.16,-302.36C1698.52,-314.24 1704.09,-324.06 1715.87,-324.06 1723.6,-324.06 1728.66,-319.83 1731.04,-313.56"/>
<polygon fill="black" stroke="black" points="1734.48,-314.24 1732.37,-303.85 1727.54,-313.29 1734.48,-314.24"/>
<text xml:space="preserve" text-anchor="middle" x="1715.87" y="-345.66" font-family="Times,serif" font-size="8.00">(_,1,0) → (_,1,0 ; -,&lt;,&lt;)</text>
<text xml:space="preserve" text-anchor="middle" x="1715.87" y="-336.06" font-family="Times,serif" font-size="8.00">(_,1,1) → (_,0,1 ; -,&lt;,&lt;)</text>
<text xml:space="preserve" text-anchor="middle" x="1715.87" y="-326.46" font-family="Times,serif" font-size="8.00">(_,0,0) → (_,0,0 ; -,&lt;,&lt;)</text>
</g>
<!-- qCompareResults -->
<g id="node14" class="node">
<title>qCompareResults</title>
<ellipse fill="none" stroke="black" cx="2160.24" cy="-445.06" rx="52.38" ry="52.38"/>
<text xml:space="preserve" text-anchor="middle" x="2160.24" y="-442.06" font-family="Times,serif" font-size="10.00">qCompareResults</text>
</g>
<!-- qSubstract&#45;&gt;qCompareResults -->
<g id="edge20" class="edge">
<title>qSubstract-&gt;qCompareResults</title>
<path fill="none" stroke="black" d="M1735.27,-300.45C1759.24,-335.83 1804.76,-393.76 1860.48,-420.06 1935.82,-455.6 2033.72,-456.48 2096.53,-452.13"/>
<polygon fill="black" stroke="black" points="2096.62,-455.64 2106.33,-451.39 2096.09,-448.66 2096.62,-455.64"/>
<text xml:space="preserve" text-anchor="middle" x="1923.88" y="-453.82" font-family="Times,serif" font-size="8.00">(_,R,1) → (_,R,1 ; &lt;,&lt;,&lt;)</text>
</g>
<!-- qIncrementResultFind -->
<g id="node15" class="node">
<title>qIncrementResultFind</title>
<ellipse fill="none" stroke="black" cx="1923.88" cy="-134.06" rx="63.4" ry="63.4"/>
<text xml:space="preserve" text-anchor="middle" x="1923.88" y="-131.06" font-family="Times,serif" font-size="10.00">qIncrementResultFind</text>
</g>
<!-- qSubstract&#45;&gt;qIncrementResultFind -->
<g id="edge21" class="edge">
<title>qSubstract-&gt;qIncrementResultFind</title>
<path fill="none" stroke="black" d="M1745.52,-252.01C1775.28,-232.21 1822.77,-200.63 1861.13,-175.12"/>
<polygon fill="black" stroke="black" points="1863.02,-178.07 1869.4,-169.62 1859.14,-172.24 1863.02,-178.07"/>
<text xml:space="preserve" text-anchor="middle" x="1805.68" y="-246.31" font-family="Times,serif" font-size="8.00">(_,0,_) → (_,0,_ ; -,&lt;,-)</text>
<text xml:space="preserve" text-anchor="middle" x="1805.68" y="-236.71" font-family="Times,serif" font-size="8.00">(_,1,_) → (_,1,_ ; -,&lt;,-)</text>
</g>
<!-- qFindBorrow -->
<g id="node16" class="node">
<title>qFindBorrow</title>
<ellipse fill="none" stroke="black" cx="1923.88" cy="-341.06" rx="42.03" ry="42.03"/>
<text xml:space="preserve" text-anchor="middle" x="1923.88" y="-338.06" font-family="Times,serif" font-size="10.00">qFindBorrow</text>
</g>
<!-- qSubstract&#45;&gt;qFindBorrow -->
<g id="edge22" class="edge">
<title>qSubstract-&gt;qFindBorrow</title>
<path fill="none" stroke="black" d="M1749.51,-282.15C1782.8,-293.46 1834.88,-311.15 1873.27,-324.2"/>
<polygon fill="black" stroke="black" points="1871.68,-327.35 1882.28,-327.26 1873.93,-320.73 1871.68,-327.35"/>
<text xml:space="preserve" text-anchor="middle" x="1805.68" y="-314.73" font-family="Times,serif" font-size="8.00">(_,0,1) → (_,Z,1 ; -,&lt;,-)</text>
</g>
<!-- qCompareResults&#45;&gt;qAccept -->
<g id="edge38" class="edge">
<title>qCompareResults-&gt;qAccept</title>
<path fill="none" stroke="black" d="M2208.05,-466.77C2217.78,-470.66 2228.08,-474.33 2237.96,-477.06 2273.89,-486.96 2315.85,-492.59 2346.76,-495.67"/>
<polygon fill="black" stroke="black" points="2346.23,-499.14 2356.52,-496.59 2346.89,-492.17 2346.23,-499.14"/>
<text xml:space="preserve" text-anchor="middle" x="2274.32" y="-541.47" font-family="Times,serif" font-size="8.00">(_,_,0) → (_,_,0 ; -,-,-)</text>
<text xml:space="preserve" text-anchor="middle" x="2274.32" y="-531.87" font-family="Times,serif" font-size="8.00">(_,_,1) → (_,_,1 ; -,-,-)</text>
<text xml:space="preserve" text-anchor="middle" x="2274.32" y="-522.27" font-family="Times,serif" font-size="8.00">(_,_,_) → (_,_,_ ; -,-,-)</text>
<text xml:space="preserve" text-anchor="middle" x="2274.32" y="-512.67" font-family="Times,serif" font-size="8.00">(S,_,0) → (_,_,0 ; -,-,-)</text>
<text xml:space="preserve" text-anchor="middle" x="2274.32" y="-503.07" font-family="Times,serif" font-size="8.00">(S,_,1) → (_,_,1 ; -,-,-)</text>
<text xml:space="preserve" text-anchor="middle" x="2274.32" y="-493.47" font-family="Times,serif" font-size="8.00">(S,_,_) → (_,_,_ ; -,-,-)</text>
</g>
<!-- qCompareResults&#45;&gt;qReject -->
<g id="edge37" class="edge">
<title>qCompareResults-&gt;qReject</title>
<path fill="none" stroke="black" d="M2198.57,-409C2210.27,-399.93 2223.84,-391.42 2237.96,-386.66 2274.2,-374.43 2318.05,-377.02 2349.52,-381.63"/>
<polygon fill="black" stroke="black" points="2348.59,-385.03 2359.02,-383.16 2349.7,-378.11 2348.59,-385.03"/>
<text xml:space="preserve" text-anchor="middle" x="2274.32" y="-465.86" font-family="Times,serif" font-size="8.00">(0,1,_) → (0,1,_ ; -,-,-)</text>
<text xml:space="preserve" text-anchor="middle" x="2274.32" y="-456.26" font-family="Times,serif" font-size="8.00">(0,1,1) → (0,1,1 ; -,-,-)</text>
<text xml:space="preserve" text-anchor="middle" x="2274.32" y="-446.66" font-family="Times,serif" font-size="8.00">(0,1,0) → (0,1,0 ; -,-,-)</text>
<text xml:space="preserve" text-anchor="middle" x="2274.32" y="-437.06" font-family="Times,serif" font-size="8.00">(1,0,_) → (1,0,_ ; -,-,-)</text>
<text xml:space="preserve" text-anchor="middle" x="2274.32" y="-427.46" font-family="Times,serif" font-size="8.00">(1,0,1) → (1,0,1 ; -,-,-)</text>
<text xml:space="preserve" text-anchor="middle" x="2274.32" y="-417.86" font-family="Times,serif" font-size="8.00">(1,0,0) → (1,0,0 ; -,-,-)</text>
<text xml:space="preserve" text-anchor="middle" x="2274.32" y="-408.26" font-family="Times,serif" font-size="8.00">(0,_,0) → (0,_,0 ; -,-,-)</text>
<text xml:space="preserve" text-anchor="middle" x="2274.32" y="-398.66" font-family="Times,serif" font-size="8.00">(0,_,_) → (0,_,_ ; -,-,-)</text>
<text xml:space="preserve" text-anchor="middle" x="2274.32" y="-389.06" font-family="Times,serif" font-size="8.00">(0,_,1) → (0,_,1 ; -,-,-)</text>
</g>
<!-- qCompareResults&#45;&gt;qCompareResults -->
<g id="edge36" class="edge">
<title>qCompareResults-&gt;qCompareResults</title>
<path fill="none" stroke="black" d="M2139.07,-493.41C2140.37,-505.97 2147.43,-515.43 2160.24,-515.43 2169.05,-515.43 2175.13,-510.96 2178.5,-504.08"/>
<polygon fill="black" stroke="black" points="2181.76,-505.44 2181.01,-494.87 2175.01,-503.6 2181.76,-505.44"/>
<text xml:space="preserve" text-anchor="middle" x="2160.24" y="-565.83" font-family="Times,serif" font-size="8.00">(1,1,1) → (1,1,1 ; &lt;,&lt;,-)</text>
<text xml:space="preserve" text-anchor="middle" x="2160.24" y="-556.23" font-family="Times,serif" font-size="8.00">(1,1,0) → (1,1,0 ; &lt;,&lt;,-)</text>
<text xml:space="preserve" text-anchor="middle" x="2160.24" y="-546.63" font-family="Times,serif" font-size="8.00">(1,1,_) → (1,1,_ ; &lt;,&lt;,-)</text>
<text xml:space="preserve" text-anchor="middle" x="2160.24" y="-537.03" font-family="Times,serif" font-size="8.00">(0,0,1) → (0,0,1 ; &lt;,&lt;,-)</text>
<text xml:space="preserve" text-anchor="middle" x="2160.24" y="-527.43" font-family="Times,serif" font-size="8.00">(0,0,0) → (0,0,0 ; &lt;,&lt;,-)</text>
<text xml:space="preserve" text-anchor="middle" x="2160.24" y="-517.83" font-family="Times,serif" font-size="8.00">(0,0,_) → (0,0,_ ; &lt;,&lt;,-)</text>
</g>
<!-- qIncrementResultFind&#45;&gt;qIncrementResultFind -->
<g id="edge28" class="edge">
<title>qIncrementResultFind-&gt;qIncrementResultFind</title>
<path fill="none" stroke="black" d="M1902.5,-194.04C1904.75,-206.5 1911.88,-215.45 1923.88,-215.45 1932.14,-215.45 1938.08,-211.22 1941.73,-204.53"/>
<polygon fill="black" stroke="black" points="1944.9,-206.07 1944.78,-195.48 1938.27,-203.83 1944.9,-206.07"/>
<text xml:space="preserve" text-anchor="middle" x="1923.88" y="-227.45" font-family="Times,serif" font-size="8.00">(_,0,_) → (_,0,_ ; -,&lt;,-)</text>
<text xml:space="preserve" text-anchor="middle" x="1923.88" y="-217.85" font-family="Times,serif" font-size="8.00">(_,1,_) → (_,1,_ ; -,&lt;,-)</text>
</g>
<!-- qIncrementResultDo -->
<g id="node18" class="node">
<title>qIncrementResultDo</title>
<ellipse fill="none" stroke="black" cx="2160.24" cy="-134.06" rx="59.72" ry="59.72"/>
<text xml:space="preserve" text-anchor="middle" x="2160.24" y="-131.06" font-family="Times,serif" font-size="10.00">qIncrementResultDo</text>
</g>
<!-- qIncrementResultFind&#45;&gt;qIncrementResultDo -->
<g id="edge29" class="edge">
<title>qIncrementResultFind-&gt;qIncrementResultDo</title>
<path fill="none" stroke="black" d="M1987.69,-134.06C2018.98,-134.06 2056.92,-134.06 2089.15,-134.06"/>
<polygon fill="black" stroke="black" points="2088.78,-137.56 2098.78,-134.06 2088.78,-130.56 2088.78,-137.56"/>
<text xml:space="preserve" text-anchor="middle" x="2043.9" y="-136.46" font-family="Times,serif" font-size="8.00">(_,R,_) → (_,R,_ ; -,&lt;,-)</text>
</g>
<!-- qFindBorrow&#45;&gt;qCompareResults -->
<g id="edge25" class="edge">
<title>qFindBorrow-&gt;qCompareResults</title>
<path fill="none" stroke="black" d="M1962.8,-357.88C2000.38,-374.56 2058.43,-400.32 2101.7,-419.52"/>
<polygon fill="black" stroke="black" points="2100.13,-422.66 2110.69,-423.51 2102.97,-416.26 2100.13,-422.66"/>
<text xml:space="preserve" text-anchor="middle" x="2043.9" y="-410.85" font-family="Times,serif" font-size="8.00">(_,R,1) → (_,R,1 ; &lt;,&lt;,-)</text>
</g>
<!-- qFindBorrow&#45;&gt;qFindBorrow -->
<g id="edge23" class="edge">
<title>qFindBorrow-&gt;qFindBorrow</title>
<path fill="none" stroke="black" d="M1901.75,-377.1C1901.15,-390.28 1908.53,-401.08 1923.88,-401.08 1934.56,-401.08 1941.38,-395.86 1944.34,-388.25"/>
<polygon fill="black" stroke="black" points="1947.76,-389 1945.79,-378.59 1940.84,-387.96 1947.76,-389"/>
<text xml:space="preserve" text-anchor="middle" x="1923.88" y="-403.48" font-family="Times,serif" font-size="8.00">(_,0,1) → (_,0,1 ; -,&lt;,-)</text>
</g>
<!-- qBorrowFound -->
<g id="node17" class="node">
<title>qBorrowFound</title>
<ellipse fill="none" stroke="black" cx="2160.24" cy="-299.06" rx="46.37" ry="46.37"/>
<text xml:space="preserve" text-anchor="middle" x="2160.24" y="-296.06" font-family="Times,serif" font-size="10.00">qBorrowFound</text>
</g>
<!-- qFindBorrow&#45;&gt;qBorrowFound -->
<g id="edge24" class="edge">
<title>qFindBorrow-&gt;qBorrowFound</title>
<path fill="none" stroke="black" d="M1965.37,-333.68C1978.13,-331.36 1992.3,-328.79 2005.28,-326.46 2037.6,-320.65 2073.74,-314.21 2102.89,-309.04"/>
<polygon fill="black" stroke="black" points="2103.37,-312.5 2112.6,-307.31 2102.15,-305.61 2103.37,-312.5"/>
<text xml:space="preserve" text-anchor="middle" x="2043.9" y="-328.86" font-family="Times,serif" font-size="8.00">(_,1,1) → (_,0,1 ; -,&gt;,-)</text>
</g>
<!-- qBorrowFound&#45;&gt;qSubstract -->
<g id="edge27" class="edge">
<title>qBorrowFound-&gt;qSubstract</title>
<path fill="none" stroke="black" d="M2114.06,-293.26C2079.43,-289.03 2030.41,-283.53 1987.28,-280.46 1908.27,-274.82 1816.02,-272.53 1762.26,-271.62"/>
<polygon fill="black" stroke="black" points="1762.63,-268.13 1752.58,-271.47 1762.52,-275.13 1762.63,-268.13"/>
<text xml:space="preserve" text-anchor="middle" x="1923.88" y="-282.86" font-family="Times,serif" font-size="8.00">(_,Z,1) → (_,1,1 ; -,&lt;,&lt;)</text>
</g>
<!-- qBorrowFound&#45;&gt;qBorrowFound -->
<g id="edge26" class="edge">
<title>qBorrowFound-&gt;qBorrowFound</title>
<path fill="none" stroke="black" d="M2138.87,-340.54C2139.3,-353.36 2146.42,-363.43 2160.24,-363.43 2169.74,-363.43 2176.07,-358.67 2179.24,-351.53"/>
<polygon fill="black" stroke="black" points="2182.61,-352.53 2181.29,-342.02 2175.76,-351.06 2182.61,-352.53"/>
<text xml:space="preserve" text-anchor="middle" x="2160.24" y="-365.83" font-family="Times,serif" font-size="8.00">(_,0,1) → (_,1,1 ; -,&gt;,-)</text>
</g>
<!-- qIncrementResultDo&#45;&gt;qIncrementResultDo -->
<g id="edge31" class="edge">
<title>qIncrementResultDo-&gt;qIncrementResultDo</title>
<path fill="none" stroke="black" d="M2139.42,-190.29C2141.38,-202.72 2148.32,-211.77 2160.24,-211.77 2168.25,-211.77 2174.01,-207.69 2177.52,-201.24"/>
<polygon fill="black" stroke="black" points="2180.84,-202.33 2180.59,-191.74 2174.18,-200.18 2180.84,-202.33"/>
<text xml:space="preserve" text-anchor="middle" x="2160.24" y="-223.77" font-family="Times,serif" font-size="8.00">(_,1,0) → (_,0,0 ; -,&lt;,-)</text>
<text xml:space="preserve" text-anchor="middle" x="2160.24" y="-214.17" font-family="Times,serif" font-size="8.00">(_,1,_) → (_,0,_ ; -,&lt;,-)</text>
</g>
<!-- qResetHeadsDividend -->
<g id="node19" class="node">
<title>qResetHeadsDividend</title>
<ellipse fill="none" stroke="black" cx="2392.07" cy="-134.06" rx="63.4" ry="63.4"/>
<text xml:space="preserve" text-anchor="middle" x="2392.07" y="-131.06" font-family="Times,serif" font-size="10.00">qResetHeadsDividend</text>
</g>
<!-- qIncrementResultDo&#45;&gt;qResetHeadsDividend -->
<g id="edge30" class="edge">
<title>qIncrementResultDo-&gt;qResetHeadsDividend</title>
<path fill="none" stroke="black" d="M2220.43,-134.06C2249.92,-134.06 2285.88,-134.06 2317.17,-134.06"/>
<polygon fill="black" stroke="black" points="2316.95,-137.56 2326.95,-134.06 2316.95,-130.56 2316.95,-137.56"/>
<text xml:space="preserve" text-anchor="middle" x="2274.32" y="-174.86" font-family="Times,serif" font-size="8.00">(_,_,_) → (_,1,_ ; -,&gt;,-)</text>
<text xml:space="preserve" text-anchor="middle" x="2274.32" y="-165.26" font-family="Times,serif" font-size="8.00">(_,_,1) → (_,1,1 ; -,&gt;,-)</text>
<text xml:space="preserve" text-anchor="middle" x="2274.32" y="-155.66" font-family="Times,serif" font-size="8.00">(_,_,0) → (_,1,0 ; -,&gt;,-)</text>
<text xml:space="preserve" text-anchor="middle" x="2274.32" y="-146.06" font-family="Times,serif" font-size="8.00">(_,0,0) → (_,1,0 ; -,&gt;,-)</text>
<text xml:space="preserve" text-anchor="middle" x="2274.32" y="-136.46" font-family="Times,serif" font-size="8.00">(_,0,_) → (_,1,_ ; -,&gt;,-)</text>
</g>
<!-- qResetHeadsDividend&#45;&gt;qResetHeadsDividend -->
<g id="edge32" class="edge">
<title>qResetHeadsDividend-&gt;qResetHeadsDividend</title>
<path fill="none" stroke="black" d="M2370.77,-194.04C2373.01,-206.5 2380.11,-215.45 2392.07,-215.45 2400.29,-215.45 2406.22,-211.22 2409.85,-204.53"/>
<polygon fill="black" stroke="black" points="2413.02,-206.07 2412.89,-195.48 2406.39,-203.84 2413.02,-206.07"/>
<text xml:space="preserve" text-anchor="middle" x="2392.07" y="-237.05" font-family="Times,serif" font-size="8.00">(_,R,_) → (_,R,_ ; -,&gt;,-)</text>
<text xml:space="preserve" text-anchor="middle" x="2392.07" y="-227.45" font-family="Times,serif" font-size="8.00">(_,1,_) → (_,1,_ ; -,&gt;,-)</text>
<text xml:space="preserve" text-anchor="middle" x="2392.07" y="-217.85" font-family="Times,serif" font-size="8.00">(_,0,_) → (_,0,_ ; -,&gt;,-)</text>
</g>
<!-- qResetHeadsDivisor -->
<g id="node20" class="node">
<title>qResetHeadsDivisor</title>
<ellipse fill="none" stroke="black" cx="2623.24" cy="-59.06" rx="59.06" ry="59.06"/>
<text xml:space="preserve" text-anchor="middle" x="2623.24" y="-56.06" font-family="Times,serif" font-size="10.00">qResetHeadsDivisor</text>
</g>
<!-- qResetHeadsDividend&#45;&gt;qResetHeadsDivisor -->
<g id="edge33" class="edge">
<title>qResetHeadsDividend-&gt;qResetHeadsDivisor</title>
<path fill="none" stroke="black" d="M2452.68,-114.55C2484.38,-104.17 2523.43,-91.39 2556.06,-80.72"/>
<polygon fill="black" stroke="black" points="2557.01,-84.09 2565.42,-77.65 2554.83,-77.44 2557.01,-84.09"/>
<text xml:space="preserve" text-anchor="middle" x="2509.83" y="-110.06" font-family="Times,serif" font-size="8.00">(_,_,_) → (_,_,_ ; -,&lt;,-)</text>
</g>
<!-- qResetHeadsDivisor&#45;&gt;qSubstract -->
<g id="edge35" class="edge">
<title>qResetHeadsDivisor-&gt;qSubstract</title>
<path fill="none" stroke="black" d="M2564.39,-52.78C2518.11,-48.3 2451.5,-43.06 2393.07,-43.06 1922.88,-43.06 1922.88,-43.06 1922.88,-43.06 1824.34,-43.06 1760.75,-161.76 1732.97,-227.87"/>
<polygon fill="black" stroke="black" points="1729.79,-226.41 1729.24,-236.99 1736.27,-229.06 1729.79,-226.41"/>
<text xml:space="preserve" text-anchor="middle" x="2160.24" y="-45.46" font-family="Times,serif" font-size="8.00">(_,_,_) → (_,_,_ ; -,&lt;,&lt;)</text>
</g>
<!-- qResetHeadsDivisor&#45;&gt;qResetHeadsDivisor -->
<g id="edge34" class="edge">
<title>qResetHeadsDivisor-&gt;qResetHeadsDivisor</title>
<path fill="none" stroke="black" d="M2602.55,-114.81C2604.49,-127.14 2611.39,-136.11 2623.24,-136.11 2631.2,-136.11 2636.93,-132.06 2640.42,-125.66"/>
<polygon fill="black" stroke="black" points="2643.72,-126.85 2643.47,-116.25 2637.06,-124.69 2643.72,-126.85"/>
<text xml:space="preserve" text-anchor="middle" x="2623.24" y="-205.71" font-family="Times,serif" font-size="8.00">(_,0,_) → (_,0,_ ; -,-,&gt;)</text>
<text xml:space="preserve" text-anchor="middle" x="2623.24" y="-196.11" font-family="Times,serif" font-size="8.00">(_,1,_) → (_,1,_ ; -,-,&gt;)</text>
<text xml:space="preserve" text-anchor="middle" x="2623.24" y="-186.51" font-family="Times,serif" font-size="8.00">(_,1,1) → (_,1,1 ; -,&gt;,&gt;)</text>
<text xml:space="preserve" text-anchor="middle" x="2623.24" y="-176.91" font-family="Times,serif" font-size="8.00">(_,0,1) → (_,0,1 ; -,&gt;,&gt;)</text>
<text xml:space="preserve" text-anchor="middle" x="2623.24" y="-167.31" font-family="Times,serif" font-size="8.00">(_,1,0) → (_,1,0 ; -,&gt;,&gt;)</text>
<text xml:space="preserve" text-anchor="middle" x="2623.24" y="-157.71" font-family="Times,serif" font-size="8.00">(_,0,0) → (_,0,0 ; -,&gt;,&gt;)</text>
<text xml:space="preserve" text-anchor="middle" x="2623.24" y="-148.11" font-family="Times,serif" font-size="8.00">(_,_,1) → (_,_,1 ; -,-,&gt;)</text>
<text xml:space="preserve" text-anchor="middle" x="2623.24" y="-138.51" font-family="Times,serif" font-size="8.00">(_,_,0) → (_,_,0 ; -,-,&gt;)</text>
</g>
</g>
</svg>