<svg xmlns="http://www.w3.org/2000/svg" xmlns:xlink="http://www.w3.org/1999/xlink" width="866pt" height="1398pt" viewBox="0.00 0.00 866.00 1398.00">
<g id="graph0" class="graph" transform="scale(1 1) rotate(0) translate(4 1393.53)">
<title>Task2Cupryniak</title>
<polygon fill="white" stroke="none" points="-4,4 -4,-1393.53 861.91,-1393.53 861.91,4 -4,4"/>
<!-- start -->
<g id="node1" class="node">
<title>start</title>
<ellipse fill="black" stroke="black" cx="1.8" cy="-732.71" rx="1.8" ry="1.8"/>
</g>
<!-- qGetLetter -->
<g id="node4" class="node">
<title>qGetLetter</title>
<ellipse fill="none" stroke="black" cx="76.27" cy="-732.71" rx="35.67" ry="35.67"/>
<text xml:space="preserve" text-anchor="middle" x="76.27" y="-729.71" font-family="Times,serif" font-size="10.00">qGetLetter</text>
</g>
<!-- start&#45;&gt;qGetLetter -->
<g id="edge1" class="edge">
<title>start-&gt;qGetLetter</title>
<path fill="none" stroke="black" d="M4.06,-732.71C7.48,-732.71 17.45,-732.71 28.89,-732.71"/>
<polygon fill="black" stroke="black" points="28.63,-736.21 38.63,-732.71 28.63,-729.21 28.63,-736.21"/>
</g>
<!-- qAccept -->
<g id="node2" class="node">
<title>qAccept</title>
<ellipse fill="none" stroke="green" cx="548.6" cy="-53.71" rx="29.66" ry="29.66"/>
<ellipse fill="none" stroke="green" cx="548.6" cy="-53.71" rx="33.66" ry="33.66"/>
<text xml:space="preserve" text-anchor="middle" x="548.6" y="-50.71" font-family="Times,serif" font-size="10.00">qAccept</text>
</g>
<!-- qReject -->
<g id="node3" class="node">
<title>qReject</title>
<ellipse fill="none" stroke="red" cx="825.92" cy="-608.71" rx="27.99" ry="27.99"/>
<ellipse fill="none" stroke="red" cx="825.92" cy="-608.71" rx="31.99" ry="31.99"/>
<text xml:space="preserve" text-anchor="middle" x="825.92" y="-605.71" font-family="Times,serif" font-size="10.00">qReject</text>
</g>
<!-- qGetLetter&#45;&gt;qGetLetter -->
<g id="edge6" class="edge">
<title>qGetLetter-&gt;qGetLetter</title>
<path fill="none" stroke="black" d="M66.12,-767.3C66.32,-777.99 69.71,-786.38 76.27,-786.38 80.26,-786.38 83.08,-783.26 84.72,-778.41"/>
<polygon fill="black" stroke="black" points="88.14,-779.21 86.18,-768.79 81.22,-778.15 88.14,-779.21"/>
<text xml:space="preserve" text-anchor="middle" x="76.27" y="-789.08" font-family="Times,serif" font-size="9.00">X/X,&gt;</text>
</g>
<!-- qCheckedLetterA -->
<g id="node5" class="node">
<title>qCheckedLetterA</title>
<ellipse fill="none" stroke="black" cx="221.12" cy="-1164.71" rx="52.36" ry="52.36"/>
<text xml:space="preserve" text-anchor="middle" x="221.12" y="-1161.71" font-family="Times,serif" font-size="10.00">qCheckedLetterA</text>
</g>
<!-- qGetLetter&#45;&gt;qCheckedLetterA -->
<g id="edge2" class="edge">
<title>qGetLetter-&gt;qCheckedLetterA</title>
<path fill="none" stroke="black" d="M85.02,-767.38C98.87,-827.34 130.09,-953.86 168.76,-1056.71 175.2,-1073.86 183.3,-1092 191.15,-1108.43"/>
<polygon fill="black" stroke="black" points="187.82,-1109.58 195.33,-1117.05 194.12,-1106.53 187.82,-1109.58"/>
<text xml:space="preserve" text-anchor="middle" x="140.34" y="-1007.49" font-family="Times,serif" font-size="9.00">a/X,&gt;</text>
</g>
<!-- qCheckedLetterB -->
<g id="node6" class="node">
<title>qCheckedLetterB</title>
<ellipse fill="none" stroke="black" cx="221.12" cy="-934.71" rx="52.03" ry="52.03"/>
<text xml:space="preserve" text-anchor="middle" x="221.12" y="-931.71" font-family="Times,serif" font-size="10.00">qCheckedLetterB</text>
</g>
<!-- qGetLetter&#45;&gt;qCheckedLetterB -->
<g id="edge3" class="edge">
<title>qGetLetter-&gt;qCheckedLetterB</title>
<path fill="none" stroke="black" d="M96.08,-762.64C105.93,-778.06 118.33,-797.06 129.93,-813.71 146.44,-837.42 165.46,-863.14 181.76,-884.76"/>
<polygon fill="black" stroke="black" points="178.83,-886.68 187.66,-892.54 184.41,-882.46 178.83,-886.68"/>
<text xml:space="preserve" text-anchor="middle" x="140.34" y="-843.36" font-family="Times,serif" font-size="9.00">b/X,&gt;</text>
</g>
<!-- qCheckedLetterC -->
<g id="node7" class="node">
<title>qCheckedLetterC</title>
<ellipse fill="none" stroke="black" cx="221.12" cy="-658.71" rx="52.03" ry="52.03"/>
<text xml:space="preserve" text-anchor="middle" x="221.12" y="-655.71" font-family="Times,serif" font-size="10.00">qCheckedLetterC</text>
</g>
<!-- qGetLetter&#45;&gt;qCheckedLetterC -->
<g id="edge4" class="edge">
<title>qGetLetter-&gt;qCheckedLetterC</title>
<path fill="none" stroke="black" d="M108.26,-716.66C124.68,-708.15 145.34,-697.45 164.43,-687.56"/>
<polygon fill="black" stroke="black" points="165.92,-690.73 173.19,-683.03 162.7,-684.52 165.92,-690.73"/>
<text xml:space="preserve" text-anchor="middle" x="140.34" y="-707.22" font-family="Times,serif" font-size="9.00">c/X,&gt;</text>
</g>
<!-- qCheckedLetterD -->
<g id="node8" class="node">
<title>qCheckedLetterD</title>
<ellipse fill="none" stroke="black" cx="221.12" cy="-474.71" rx="52.36" ry="52.36"/>
<text xml:space="preserve" text-anchor="middle" x="221.12" y="-471.71" font-family="Times,serif" font-size="10.00">qCheckedLetterD</text>
</g>
<!-- qGetLetter&#45;&gt;qCheckedLetterD -->
<g id="edge5" class="edge">
<title>qGetLetter-&gt;qCheckedLetterD</title>
<path fill="none" stroke="black" d="M94.5,-701.59C117.99,-659.16 160.46,-582.46 189.46,-530.09"/>
<polygon fill="black" stroke="black" points="192.38,-532.05 194.16,-521.61 186.25,-528.66 192.38,-532.05"/>
<text xml:space="preserve" text-anchor="middle" x="140.34" y="-637.11" font-family="Times,serif" font-size="9.00">d/X,&gt;</text>
</g>
<!-- qFinalCheck -->
<g id="node9" class="node">
<title>qFinalCheck</title>
<ellipse fill="none" stroke="black" cx="221.12" cy="-217.71" rx="40.35" ry="40.35"/>
<text xml:space="preserve" text-anchor="middle" x="221.12" y="-214.71" font-family="Times,serif" font-size="10.00">qFinalCheck</text>
</g>
<!-- qGetLetter&#45;&gt;qFinalCheck -->
<g id="edge7" class="edge">
<title>qGetLetter-&gt;qFinalCheck</title>
<path fill="none" stroke="black" d="M86.75,-698.53C111.37,-609.76 177.42,-371.67 206.29,-267.58"/>
<polygon fill="black" stroke="black" points="209.59,-268.78 208.89,-258.21 202.84,-266.91 209.59,-268.78"/>
<text xml:space="preserve" text-anchor="middle" x="140.34" y="-539.19" font-family="Times,serif" font-size="9.00">:/:,&gt;</text>
</g>
<!-- qCheckedLetterA&#45;&gt;qCheckedLetterA -->
<g id="edge8" class="edge">
<title>qCheckedLetterA-&gt;qCheckedLetterA</title>
<path fill="none" stroke="black" d="M206.35,-1215.32C207.68,-1226.73 212.6,-1235.08 221.12,-1235.08 226.58,-1235.08 230.56,-1231.65 233.07,-1226.19"/>
<polygon fill="black" stroke="black" points="236.39,-1227.34 235.52,-1216.78 229.61,-1225.58 236.39,-1227.34"/>
<text xml:space="preserve" text-anchor="middle" x="221.12" y="-1270.18" font-family="Times,serif" font-size="9.00">a/a,&gt;</text>
<text xml:space="preserve" text-anchor="middle" x="221.12" y="-1259.38" font-family="Times,serif" font-size="9.00">b/b,&gt;</text>
<text xml:space="preserve" text-anchor="middle" x="221.12" y="-1248.58" font-family="Times,serif" font-size="9.00">c/c,&gt;</text>
<text xml:space="preserve" text-anchor="middle" x="221.12" y="-1237.78" font-family="Times,serif" font-size="9.00">d/d,&gt;</text>
</g>
<!-- qCheckingA -->
<g id="node10" class="node">
<title>qCheckingA</title>
<ellipse fill="none" stroke="black" cx="386.02" cy="-1211.71" rx="40.02" ry="40.02"/>
<text xml:space="preserve" text-anchor="middle" x="386.02" y="-1208.71" font-family="Times,serif" font-size="10.00">qCheckingA</text>
</g>
<!-- qCheckedLetterA&#45;&gt;qCheckingA -->
<g id="edge9" class="edge">
<title>qCheckedLetterA-&gt;qCheckingA</title>
<path fill="none" stroke="black" d="M271.88,-1179.07C292.33,-1184.97 315.93,-1191.78 336.28,-1197.65"/>
<polygon fill="black" stroke="black" points="335.17,-1200.97 345.75,-1200.38 337.11,-1194.25 335.17,-1200.97"/>
<text xml:space="preserve" text-anchor="middle" x="302.9" y="-1193.73" font-family="Times,serif" font-size="9.00">:/:,&gt;</text>
</g>
<!-- qCheckedLetterB&#45;&gt;qCheckedLetterB -->
<g id="edge18" class="edge">
<title>qCheckedLetterB-&gt;qCheckedLetterB</title>
<path fill="none" stroke="black" d="M206.35,-985.08C207.68,-996.44 212.6,-1004.75 221.12,-1004.75 226.58,-1004.75 230.56,-1001.34 233.07,-995.9"/>
<polygon fill="black" stroke="black" points="236.37,-997.1 235.51,-986.54 229.6,-995.33 236.37,-997.1"/>
<text xml:space="preserve" text-anchor="middle" x="221.12" y="-1039.85" font-family="Times,serif" font-size="9.00">a/a,&gt;</text>
<text xml:space="preserve" text-anchor="middle" x="221.12" y="-1029.05" font-family="Times,serif" font-size="9.00">b/b,&gt;</text>
<text xml:space="preserve" text-anchor="middle" x="221.12" y="-1018.25" font-family="Times,serif" font-size="9.00">c/c,&gt;</text>
<text xml:space="preserve" text-anchor="middle" x="221.12" y="-1007.45" font-family="Times,serif" font-size="9.00">d/d,&gt;</text>
</g>
<!-- qCheckingB -->
<g id="node14" class="node">
<title>qCheckingB</title>
<ellipse fill="none" stroke="black" cx="386.02" cy="-990.71" rx="39.69" ry="39.69"/>
<text xml:space="preserve" text-anchor="middle" x="386.02" y="-987.71" font-family="Times,serif" font-size="10.00">qCheckingB</text>
</g>
<!-- qCheckedLetterB&#45;&gt;qCheckingB -->
<g id="edge19" class="edge">
<title>qCheckedLetterB-&gt;qCheckingB</title>
<path fill="none" stroke="black" d="M270.56,-951.36C291.72,-958.64 316.47,-967.15 337.52,-974.39"/>
<polygon fill="black" stroke="black" points="336.13,-977.61 346.73,-977.55 338.41,-970.99 336.13,-977.61"/>
<text xml:space="preserve" text-anchor="middle" x="302.9" y="-968.77" font-family="Times,serif" font-size="9.00">:/:,&gt;</text>
</g>
<!-- qCheckedLetterC&#45;&gt;qCheckedLetterC -->
<g id="edge28" class="edge">
<title>qCheckedLetterC-&gt;qCheckedLetterC</title>
<path fill="none" stroke="black" d="M206.35,-709.08C207.68,-720.44 212.6,-728.75 221.12,-728.75 226.58,-728.75 230.56,-725.34 233.07,-719.9"/>
<polygon fill="black" stroke="black" points="236.37,-721.1 235.51,-710.54 229.6,-719.33 236.37,-721.1"/>
<text xml:space="preserve" text-anchor="middle" x="221.12" y="-763.85" font-family="Times,serif" font-size="9.00">a/a,&gt;</text>
<text xml:space="preserve" text-anchor="middle" x="221.12" y="-753.05" font-family="Times,serif" font-size="9.00">b/b,&gt;</text>
<text xml:space="preserve" text-anchor="middle" x="221.12" y="-742.25" font-family="Times,serif" font-size="9.00">c/c,&gt;</text>
<text xml:space="preserve" text-anchor="middle" x="221.12" y="-731.45" font-family="Times,serif" font-size="9.00">d/d,&gt;</text>
</g>
<!-- qCheckingC -->
<g id="node17" class="node">
<title>qCheckingC</title>
<ellipse fill="none" stroke="black" cx="386.02" cy="-658.71" rx="39.69" ry="39.69"/>
<text xml:space="preserve" text-anchor="middle" x="386.02" y="-655.71" font-family="Times,serif" font-size="10.00">qCheckingC</text>
</g>
<!-- qCheckedLetterC&#45;&gt;qCheckingC -->
<g id="edge29" class="edge">
<title>qCheckedLetterC-&gt;qCheckingC</title>
<path fill="none" stroke="black" d="M273.22,-658.71C292.78,-658.71 315.07,-658.71 334.58,-658.71"/>
<polygon fill="black" stroke="black" points="334.49,-662.21 344.49,-658.71 334.49,-655.21 334.49,-662.21"/>
<text xml:space="preserve" text-anchor="middle" x="302.9" y="-661.41" font-family="Times,serif" font-size="9.00">:/:,&gt;</text>
</g>
<!-- qCheckedLetterD&#45;&gt;qCheckedLetterD -->
<g id="edge38" class="edge">
<title>qCheckedLetterD-&gt;qCheckedLetterD</title>
<path fill="none" stroke="black" d="M206.35,-525.32C207.68,-536.73 212.6,-545.08 221.12,-545.08 226.58,-545.08 230.56,-541.65 233.07,-536.19"/>
<polygon fill="black" stroke="black" points="236.39,-537.34 235.52,-526.78 229.61,-535.58 236.39,-537.34"/>
<text xml:space="preserve" text-anchor="middle" x="221.12" y="-580.18" font-family="Times,serif" font-size="9.00">a/a,&gt;</text>
<text xml:space="preserve" text-anchor="middle" x="221.12" y="-569.38" font-family="Times,serif" font-size="9.00">b/b,&gt;</text>
<text xml:space="preserve" text-anchor="middle" x="221.12" y="-558.58" font-family="Times,serif" font-size="9.00">c/c,&gt;</text>
<text xml:space="preserve" text-anchor="middle" x="221.12" y="-547.78" font-family="Times,serif" font-size="9.00">d/d,&gt;</text>
</g>
<!-- qCheckingD -->
<g id="node20" class="node">
<title>qCheckingD</title>
<ellipse fill="none" stroke="black" cx="386.02" cy="-474.71" rx="40.02" ry="40.02"/>
<text xml:space="preserve" text-anchor="middle" x="386.02" y="-471.71" font-family="Times,serif" font-size="10.00">qCheckingD</text>
</g>
<!-- qCheckedLetterD&#45;&gt;qCheckingD -->
<g id="edge39" class="edge">
<title>qCheckedLetterD-&gt;qCheckingD</title>
<path fill="none" stroke="black" d="M273.66,-474.71C293.05,-474.71 315.07,-474.71 334.38,-474.71"/>
<polygon fill="black" stroke="black" points="334.18,-478.21 344.18,-474.71 334.18,-471.21 334.18,-478.21"/>
<text xml:space="preserve" text-anchor="middle" x="302.9" y="-477.41" font-family="Times,serif" font-size="9.00">:/:,&gt;</text>
</g>
<!-- qFinalCheckGood -->
<g id="node23" class="node">
<title>qFinalCheckGood</title>
<ellipse fill="none" stroke="black" cx="386.02" cy="-53.71" rx="53.71" ry="53.71"/>
<text xml:space="preserve" text-anchor="middle" x="386.02" y="-50.71" font-family="Times,serif" font-size="10.00">qFinalCheckGood</text>
</g>
<!-- qFinalCheck&#45;&gt;qFinalCheckGood -->
<g id="edge50" class="edge">
<title>qFinalCheck-&gt;qFinalCheckGood</title>
<path fill="none" stroke="black" d="M250.13,-189.52C274.66,-164.83 310.76,-128.48 339.45,-99.59"/>
<polygon fill="black" stroke="black" points="341.7,-102.3 346.26,-92.74 336.73,-97.36 341.7,-102.3"/>
<text xml:space="preserve" text-anchor="middle" x="302.9" y="-148.23" font-family="Times,serif" font-size="9.00">G/G,&gt;</text>
</g>
<!-- qFinalCheckNext -->
<g id="node24" class="node">
<title>qFinalCheckNext</title>
<ellipse fill="none" stroke="black" cx="548.6" cy="-164.71" rx="52.04" ry="52.04"/>
<text xml:space="preserve" text-anchor="middle" x="548.6" y="-161.71" font-family="Times,serif" font-size="10.00">qFinalCheckNext</text>
</g>
<!-- qFinalCheck&#45;&gt;qFinalCheckNext -->
<g id="edge51" class="edge">
<title>qFinalCheck-&gt;qFinalCheckNext</title>
<path fill="none" stroke="black" d="M259.98,-205.32C281.06,-198.86 307.91,-191.36 332.31,-186.71 383.19,-177.03 441.71,-171.4 484.88,-168.26"/>
<polygon fill="black" stroke="black" points="485.11,-171.75 494.84,-167.56 484.62,-164.77 485.11,-171.75"/>
<text xml:space="preserve" text-anchor="middle" x="386.02" y="-232.61" font-family="Times,serif" font-size="9.00">E/E,&gt;</text>
<text xml:space="preserve" text-anchor="middle" x="386.02" y="-221.81" font-family="Times,serif" font-size="9.00">a/a,&gt;</text>
<text xml:space="preserve" text-anchor="middle" x="386.02" y="-211.01" font-family="Times,serif" font-size="9.00">b/b,&gt;</text>
<text xml:space="preserve" text-anchor="middle" x="386.02" y="-200.21" font-family="Times,serif" font-size="9.00">c/c,&gt;</text>
<text xml:space="preserve" text-anchor="middle" x="386.02" y="-189.41" font-family="Times,serif" font-size="9.00">d/d,&gt;</text>
</g>
<!-- qCheckingA&#45;&gt;qCheckingA -->
<g id="edge11" class="edge">
<title>qCheckingA-&gt;qCheckingA</title>
<path fill="none" stroke="black" d="M370.64,-1249.1C370.95,-1260.66 376.08,-1269.73 386.02,-1269.73 392.4,-1269.73 396.79,-1266.01 399.21,-1260.29"/>
<polygon fill="black" stroke="black" points="402.62,-1261.07 401.12,-1250.59 395.75,-1259.72 402.62,-1261.07"/>
<text xml:space="preserve" text-anchor="middle" x="386.02" y="-1272.43" font-family="Times,serif" font-size="9.00">G/G,&gt;</text>
</g>
<!-- qNextStringA -->
<g id="node11" class="node">
<title>qNextStringA</title>
<ellipse fill="none" stroke="black" cx="701.83" cy="-1235.71" rx="43.36" ry="43.36"/>
<text xml:space="preserve" text-anchor="middle" x="701.83" y="-1232.71" font-family="Times,serif" font-size="10.00">qNextStringA</text>
</g>
<!-- qCheckingA&#45;&gt;qNextStringA -->
<g id="edge10" class="edge">
<title>qCheckingA-&gt;qNextStringA</title>
<path fill="none" stroke="black" d="M409.75,-1244.25C429.43,-1269.35 460.39,-1302.18 496.56,-1316.71 555.92,-1340.57 584.13,-1344.03 640.47,-1313.71 653.8,-1306.54 665.13,-1295.01 674.24,-1282.99"/>
<polygon fill="black" stroke="black" points="676.98,-1285.19 679.9,-1275 671.27,-1281.14 676.98,-1285.19"/>
<text xml:space="preserve" text-anchor="middle" x="548.6" y="-1381.43" font-family="Times,serif" font-size="9.00">a/G,&gt;</text>
<text xml:space="preserve" text-anchor="middle" x="548.6" y="-1370.63" font-family="Times,serif" font-size="9.00">b/E,&gt;</text>
<text xml:space="preserve" text-anchor="middle" x="548.6" y="-1359.83" font-family="Times,serif" font-size="9.00">c/E,&gt;</text>
<text xml:space="preserve" text-anchor="middle" x="548.6" y="-1349.03" font-family="Times,serif" font-size="9.00">d/E,&gt;</text>
<text xml:space="preserve" text-anchor="middle" x="548.6" y="-1338.23" font-family="Times,serif" font-size="9.00">E/E,&gt;</text>
</g>
<!-- qMarkEA -->
<g id="node12" class="node">
<title>qMarkEA</title>
<ellipse fill="none" stroke="black" cx="548.6" cy="-1273.71" rx="33.67" ry="33.67"/>
<text xml:space="preserve" text-anchor="middle" x="548.6" y="-1270.71" font-family="Times,serif" font-size="10.00">qMarkEA</text>
</g>
<!-- qCheckingA&#45;&gt;qMarkEA -->
<g id="edge12" class="edge">
<title>qCheckingA-&gt;qMarkEA</title>
<path fill="none" stroke="black" d="M423.86,-1225.94C448.41,-1235.42 480.72,-1247.89 506.16,-1257.71"/>
<polygon fill="black" stroke="black" points="504.6,-1260.86 515.19,-1261.2 507.12,-1254.33 504.6,-1260.86"/>
<text xml:space="preserve" text-anchor="middle" x="468.15" y="-1249.13" font-family="Times,serif" font-size="9.00">#/#,&lt;</text>
</g>
<!-- qGoBackToStart -->
<g id="node13" class="node">
<title>qGoBackToStart</title>
<ellipse fill="none" stroke="black" cx="548.6" cy="-799.71" rx="50.37" ry="50.37"/>
<text xml:space="preserve" text-anchor="middle" x="548.6" y="-796.71" font-family="Times,serif" font-size="10.00">qGoBackToStart</text>
</g>
<!-- qCheckingA&#45;&gt;qGoBackToStart -->
<g id="edge13" class="edge">
<title>qCheckingA-&gt;qGoBackToStart</title>
<path fill="none" stroke="black" d="M408.19,-1178.18C428.64,-1144.53 459.29,-1090.67 478.56,-1040.71 490.43,-1009.94 487.79,-1000.51 496.56,-968.71 506.74,-931.82 519.13,-890.7 529.16,-858.26"/>
<polygon fill="black" stroke="black" points="532.39,-859.65 532.01,-849.06 525.71,-857.57 532.39,-859.65"/>
<text xml:space="preserve" text-anchor="middle" x="468.15" y="-1087.24" font-family="Times,serif" font-size="9.00">_/_,&lt;</text>
</g>
<!-- qNextStringA&#45;&gt;qReject -->
<g id="edge17" class="edge">
<title>qNextStringA-&gt;qReject</title>
<path fill="none" stroke="black" d="M721.84,-1196.71C730.13,-1178.29 739.28,-1155.77 745.19,-1134.71 794.29,-959.87 815.01,-743.3 821.97,-652.25"/>
<polygon fill="black" stroke="black" points="825.44,-652.76 822.7,-642.52 818.46,-652.24 825.44,-652.76"/>
<text xml:space="preserve" text-anchor="middle" x="769.56" y="-1053.05" font-family="Times,serif" font-size="9.00">:/:,-</text>
</g>
<!-- qNextStringA&#45;&gt;qCheckingA -->
<g id="edge16" class="edge">
<title>qNextStringA-&gt;qCheckingA</title>
<path fill="none" stroke="black" d="M659.05,-1228C641.13,-1224.98 619.92,-1221.8 600.64,-1219.91 545.15,-1214.49 481.23,-1212.61 437.87,-1211.98"/>
<polygon fill="black" stroke="black" points="438.05,-1208.48 428,-1211.86 437.96,-1215.48 438.05,-1208.48"/>
<text xml:space="preserve" text-anchor="middle" x="548.6" y="-1222.61" font-family="Times,serif" font-size="9.00">#/#,&gt;</text>
</g>
<!-- qNextStringA&#45;&gt;qNextStringA -->
<g id="edge15" class="edge">
<title>qNextStringA-&gt;qNextStringA</title>
<path fill="none" stroke="black" d="M689.24,-1277.59C689.96,-1288.68 694.15,-1297.08 701.83,-1297.08 706.62,-1297.08 710.06,-1293.8 712.14,-1288.63"/>
<polygon fill="black" stroke="black" points="715.52,-1289.57 714.11,-1279.07 708.66,-1288.16 715.52,-1289.57"/>
<text xml:space="preserve" text-anchor="middle" x="701.83" y="-1332.18" font-family="Times,serif" font-size="9.00">a/a,&gt;</text>
<text xml:space="preserve" text-anchor="middle" x="701.83" y="-1321.38" font-family="Times,serif" font-size="9.00">b/b,&gt;</text>
<text xml:space="preserve" text-anchor="middle" x="701.83" y="-1310.58" font-family="Times,serif" font-size="9.00">c/c,&gt;</text>
<text xml:space="preserve" text-anchor="middle" x="701.83" y="-1299.78" font-family="Times,serif" font-size="9.00">d/d,&gt;</text>
</g>
<!-- qMarkEA&#45;&gt;qNextStringA -->
<g id="edge14" class="edge">
<title>qMarkEA-&gt;qNextStringA</title>
<path fill="none" stroke="black" d="M581.67,-1265.66C601.03,-1260.79 626.17,-1254.48 648.36,-1248.9"/>
<polygon fill="black" stroke="black" points="649,-1252.35 657.84,-1246.52 647.29,-1245.56 649,-1252.35"/>
<text xml:space="preserve" text-anchor="middle" x="629.55" y="-1301.75" font-family="Times,serif" font-size="9.00">G/E,&gt;</text>
<text xml:space="preserve" text-anchor="middle" x="629.55" y="-1290.95" font-family="Times,serif" font-size="9.00">a/E,&gt;</text>
<text xml:space="preserve" text-anchor="middle" x="629.55" y="-1280.15" font-family="Times,serif" font-size="9.00">b/E,&gt;</text>
<text xml:space="preserve" text-anchor="middle" x="629.55" y="-1269.35" font-family="Times,serif" font-size="9.00">c/E,&gt;</text>
<text xml:space="preserve" text-anchor="middle" x="629.55" y="-1258.55" font-family="Times,serif" font-size="9.00">d/E,&gt;</text>
</g>
<!-- qGoBackToStart&#45;&gt;qGetLetter -->
<g id="edge49" class="edge">
<title>qGoBackToStart-&gt;qGetLetter</title>
<path fill="none" stroke="black" d="M498.1,-803.9C424.73,-808.63 283.42,-812.03 168.76,-780.71 150.59,-775.75 131.93,-766.79 116.25,-757.93"/>
<polygon fill="black" stroke="black" points="118.11,-754.97 107.71,-752.94 114.57,-761.01 118.11,-754.97"/>
<text xml:space="preserve" text-anchor="middle" x="302.9" y="-806.27" font-family="Times,serif" font-size="9.00">X/X,&gt;</text>
</g>
<!-- qGoBackToStart&#45;&gt;qGoBackToStart -->
<g id="edge48" class="edge">
<title>qGoBackToStart-&gt;qGoBackToStart</title>
<path fill="none" stroke="black" d="M533.82,-848.26C535.03,-859.67 539.96,-868.08 548.6,-868.08 554.14,-868.08 558.15,-864.63 560.64,-859.15"/>
<polygon fill="black" stroke="black" points="563.96,-860.28 563.02,-849.73 557.18,-858.57 563.96,-860.28"/>
<text xml:space="preserve" text-anchor="middle" x="548.6" y="-946.38" font-family="Times,serif" font-size="9.00">#/#,&lt;</text>
<text xml:space="preserve" text-anchor="middle" x="548.6" y="-935.58" font-family="Times,serif" font-size="9.00">a/a,&lt;</text>
<text xml:space="preserve" text-anchor="middle" x="548.6" y="-924.78" font-family="Times,serif" font-size="9.00">b/b,&lt;</text>
<text xml:space="preserve" text-anchor="middle" x="548.6" y="-913.98" font-family="Times,serif" font-size="9.00">c/c,&lt;</text>
<text xml:space="preserve" text-anchor="middle" x="548.6" y="-903.18" font-family="Times,serif" font-size="9.00">d/d,&lt;</text>
<text xml:space="preserve" text-anchor="middle" x="548.6" y="-892.38" font-family="Times,serif" font-size="9.00">:/:,&lt;</text>
<text xml:space="preserve" text-anchor="middle" x="548.6" y="-881.58" font-family="Times,serif" font-size="9.00">E/E,&lt;</text>
<text xml:space="preserve" text-anchor="middle" x="548.6" y="-870.78" font-family="Times,serif" font-size="9.00">G/G,&lt;</text>
</g>
<!-- qCheckingB&#45;&gt;qGoBackToStart -->
<g id="edge23" class="edge">
<title>qCheckingB-&gt;qGoBackToStart</title>
<path fill="none" stroke="black" d="M412.11,-960.87C437.81,-930.31 478.13,-882.35 508.11,-846.69"/>
<polygon fill="black" stroke="black" points="510.76,-848.97 514.52,-839.07 505.4,-844.47 510.76,-848.97"/>
<text xml:space="preserve" text-anchor="middle" x="468.15" y="-903.64" font-family="Times,serif" font-size="9.00">_/_,&lt;</text>
</g>
<!-- qCheckingB&#45;&gt;qCheckingB -->
<g id="edge21" class="edge">
<title>qCheckingB-&gt;qCheckingB</title>
<path fill="none" stroke="black" d="M370.63,-1027.61C370.87,-1039.23 376,-1048.4 386.02,-1048.4 392.45,-1048.4 396.86,-1044.64 399.26,-1038.88"/>
<polygon fill="black" stroke="black" points="402.69,-1039.57 401.13,-1029.1 395.82,-1038.26 402.69,-1039.57"/>
<text xml:space="preserve" text-anchor="middle" x="386.02" y="-1051.1" font-family="Times,serif" font-size="9.00">G/G,&gt;</text>
</g>
<!-- qNextStringB -->
<g id="node15" class="node">
<title>qNextStringB</title>
<ellipse fill="none" stroke="black" cx="701.83" cy="-1021.71" rx="43.03" ry="43.03"/>
<text xml:space="preserve" text-anchor="middle" x="701.83" y="-1018.71" font-family="Times,serif" font-size="10.00">qNextStringB</text>
</g>
<!-- qCheckingB&#45;&gt;qNextStringB -->
<g id="edge20" class="edge">
<title>qCheckingB-&gt;qNextStringB</title>
<path fill="none" stroke="black" d="M409.85,-1022.87C429.59,-1047.69 460.57,-1080.18 496.56,-1094.71 555.87,-1118.67 582.69,-1123.15 640.47,-1095.71 653.35,-1089.6 664.39,-1079.24 673.37,-1068.18"/>
<polygon fill="black" stroke="black" points="675.98,-1070.52 679.21,-1060.43 670.39,-1066.31 675.98,-1070.52"/>
<text xml:space="preserve" text-anchor="middle" x="548.6" y="-1160.44" font-family="Times,serif" font-size="9.00">a/E,&gt;</text>
<text xml:space="preserve" text-anchor="middle" x="548.6" y="-1149.64" font-family="Times,serif" font-size="9.00">b/G,&gt;</text>
<text xml:space="preserve" text-anchor="middle" x="548.6" y="-1138.84" font-family="Times,serif" font-size="9.00">c/E,&gt;</text>
<text xml:space="preserve" text-anchor="middle" x="548.6" y="-1128.04" font-family="Times,serif" font-size="9.00">d/E,&gt;</text>
<text xml:space="preserve" text-anchor="middle" x="548.6" y="-1117.24" font-family="Times,serif" font-size="9.00">E/E,&gt;</text>
</g>
<!-- qMarkEB -->
<g id="node16" class="node">
<title>qMarkEB</title>
<ellipse fill="none" stroke="black" cx="548.6" cy="-1052.71" rx="33.34" ry="33.34"/>
<text xml:space="preserve" text-anchor="middle" x="548.6" y="-1049.71" font-family="Times,serif" font-size="10.00">qMarkEB</text>
</g>
<!-- qCheckingB&#45;&gt;qMarkEB -->
<g id="edge22" class="edge">
<title>qCheckingB-&gt;qMarkEB</title>
<path fill="none" stroke="black" d="M423.46,-1004.78C448.16,-1014.32 480.84,-1026.94 506.47,-1036.83"/>
<polygon fill="black" stroke="black" points="504.97,-1040.01 515.56,-1040.34 507.49,-1033.48 504.97,-1040.01"/>
<text xml:space="preserve" text-anchor="middle" x="468.15" y="-1028.13" font-family="Times,serif" font-size="9.00">#/#,&lt;</text>
</g>
<!-- qNextStringB&#45;&gt;qReject -->
<g id="edge27" class="edge">
<title>qNextStringB-&gt;qReject</title>
<path fill="none" stroke="black" d="M714.98,-980.6C738.29,-901.75 789.06,-730.03 812.55,-650.58"/>
<polygon fill="black" stroke="black" points="815.9,-651.59 815.38,-641.01 809.19,-649.6 815.9,-651.59"/>
<text xml:space="preserve" text-anchor="middle" x="769.56" y="-817.91" font-family="Times,serif" font-size="9.00">:/:,-</text>
</g>
<!-- qNextStringB&#45;&gt;qCheckingB -->
<g id="edge26" class="edge">
<title>qNextStringB-&gt;qCheckingB</title>
<path fill="none" stroke="black" d="M659.67,-1011.1C641.68,-1006.88 620.24,-1002.45 600.64,-999.91 545.17,-992.74 480.99,-990.82 437.57,-990.46"/>
<polygon fill="black" stroke="black" points="437.71,-986.96 427.69,-990.41 437.67,-993.96 437.71,-986.96"/>
<text xml:space="preserve" text-anchor="middle" x="548.6" y="-1002.61" font-family="Times,serif" font-size="9.00">#/#,&gt;</text>
</g>
<!-- qNextStringB&#45;&gt;qNextStringB -->
<g id="edge25" class="edge">
<title>qNextStringB-&gt;qNextStringB</title>
<path fill="none" stroke="black" d="M689.24,-1063.36C689.96,-1074.39 694.15,-1082.74 701.83,-1082.74 706.62,-1082.74 710.06,-1079.48 712.14,-1074.34"/>
<polygon fill="black" stroke="black" points="715.51,-1075.35 714.11,-1064.84 708.65,-1073.92 715.51,-1075.35"/>
<text xml:space="preserve" text-anchor="middle" x="701.83" y="-1117.84" font-family="Times,serif" font-size="9.00">a/a,&gt;</text>
<text xml:space="preserve" text-anchor="middle" x="701.83" y="-1107.04" font-family="Times,serif" font-size="9.00">b/b,&gt;</text>
<text xml:space="preserve" text-anchor="middle" x="701.83" y="-1096.24" font-family="Times,serif" font-size="9.00">c/c,&gt;</text>
<text xml:space="preserve" text-anchor="middle" x="701.83" y="-1085.44" font-family="Times,serif" font-size="9.00">d/d,&gt;</text>
</g>
<!-- qMarkEB&#45;&gt;qNextStringB -->
<g id="edge24" class="edge">
<title>qMarkEB-&gt;qNextStringB</title>
<path fill="none" stroke="black" d="M581.67,-1046.14C600.94,-1042.19 625.94,-1037.07 648.05,-1032.53"/>
<polygon fill="black" stroke="black" points="648.73,-1035.97 657.83,-1030.53 647.33,-1029.11 648.73,-1035.97"/>
<text xml:space="preserve" text-anchor="middle" x="629.55" y="-1084.04" font-family="Times,serif" font-size="9.00">G/E,&gt;</text>
<text xml:space="preserve" text-anchor="middle" x="629.55" y="-1073.24" font-family="Times,serif" font-size="9.00">a/E,&gt;</text>
<text xml:space="preserve" text-anchor="middle" x="629.55" y="-1062.44" font-family="Times,serif" font-size="9.00">b/E,&gt;</text>
<text xml:space="preserve" text-anchor="middle" x="629.55" y="-1051.64" font-family="Times,serif" font-size="9.00">c/E,&gt;</text>
<text xml:space="preserve" text-anchor="middle" x="629.55" y="-1040.84" font-family="Times,serif" font-size="9.00">d/E,&gt;</text>
</g>
<!-- qCheckingC&#45;&gt;qGoBackToStart -->
<g id="edge33" class="edge">
<title>qCheckingC-&gt;qGoBackToStart</title>
<path fill="none" stroke="black" d="M416.48,-684.58C440.25,-705.45 474.13,-735.2 501.49,-759.23"/>
<polygon fill="black" stroke="black" points="499.17,-761.84 508.99,-765.81 503.79,-756.58 499.17,-761.84"/>
<text xml:space="preserve" text-anchor="middle" x="468.15" y="-740.36" font-family="Times,serif" font-size="9.00">_/_,&lt;</text>
</g>
<!-- qCheckingC&#45;&gt;qCheckingC -->
<g id="edge31" class="edge">
<title>qCheckingC-&gt;qCheckingC</title>
<path fill="none" stroke="black" d="M370.63,-695.61C370.87,-707.23 376,-716.4 386.02,-716.4 392.45,-716.4 396.86,-712.64 399.26,-706.88"/>
<polygon fill="black" stroke="black" points="402.69,-707.57 401.13,-697.1 395.82,-706.26 402.69,-707.57"/>
<text xml:space="preserve" text-anchor="middle" x="386.02" y="-719.1" font-family="Times,serif" font-size="9.00">G/G,&gt;</text>
</g>
<!-- qNextStringC -->
<g id="node18" class="node">
<title>qNextStringC</title>
<ellipse fill="none" stroke="black" cx="701.83" cy="-608.71" rx="43.03" ry="43.03"/>
<text xml:space="preserve" text-anchor="middle" x="701.83" y="-605.71" font-family="Times,serif" font-size="10.00">qNextStringC</text>
</g>
<!-- qCheckingC&#45;&gt;qNextStringC -->
<g id="edge30" class="edge">
<title>qCheckingC-&gt;qNextStringC</title>
<path fill="none" stroke="black" d="M425.08,-668.16C476.06,-678.91 568.44,-691.61 640.47,-663.71 649.3,-660.29 657.64,-654.91 665.14,-648.82"/>
<polygon fill="black" stroke="black" points="667.21,-651.66 672.39,-642.42 662.58,-646.41 667.21,-651.66"/>
<text xml:space="preserve" text-anchor="middle" x="548.6" y="-726.48" font-family="Times,serif" font-size="9.00">a/E,&gt;</text>
<text xml:space="preserve" text-anchor="middle" x="548.6" y="-715.68" font-family="Times,serif" font-size="9.00">b/E,&gt;</text>
<text xml:space="preserve" text-anchor="middle" x="548.6" y="-704.88" font-family="Times,serif" font-size="9.00">c/G,&gt;</text>
<text xml:space="preserve" text-anchor="middle" x="548.6" y="-694.08" font-family="Times,serif" font-size="9.00">d/E,&gt;</text>
<text xml:space="preserve" text-anchor="middle" x="548.6" y="-683.28" font-family="Times,serif" font-size="9.00">E/E,&gt;</text>
</g>
<!-- qMarkEC -->
<g id="node19" class="node">
<title>qMarkEC</title>
<ellipse fill="none" stroke="black" cx="548.6" cy="-608.71" rx="33.34" ry="33.34"/>
<text xml:space="preserve" text-anchor="middle" x="548.6" y="-605.71" font-family="Times,serif" font-size="10.00">qMarkEC</text>
</g>
<!-- qCheckingC&#45;&gt;qMarkEC -->
<g id="edge32" class="edge">
<title>qCheckingC-&gt;qMarkEC</title>
<path fill="none" stroke="black" d="M418.14,-634.91C429.92,-627.15 443.86,-619.39 457.74,-614.91 472.19,-610.26 488.59,-608.24 503.4,-607.53"/>
<polygon fill="black" stroke="black" points="503.45,-611.03 513.35,-607.26 503.26,-604.04 503.45,-611.03"/>
<text xml:space="preserve" text-anchor="middle" x="468.15" y="-617.61" font-family="Times,serif" font-size="9.00">#/#,&lt;</text>
</g>
<!-- qNextStringC&#45;&gt;qReject -->
<g id="edge37" class="edge">
<title>qNextStringC-&gt;qReject</title>
<path fill="none" stroke="black" d="M745.19,-608.71C757.3,-608.71 770.49,-608.71 782.6,-608.71"/>
<polygon fill="black" stroke="black" points="782.29,-612.21 792.29,-608.71 782.29,-605.21 782.29,-612.21"/>
<text xml:space="preserve" text-anchor="middle" x="769.56" y="-611.41" font-family="Times,serif" font-size="9.00">:/:,-</text>
</g>
<!-- qNextStringC&#45;&gt;qCheckingC -->
<g id="edge36" class="edge">
<title>qNextStringC-&gt;qCheckingC</title>
<path fill="none" stroke="black" d="M665.9,-584.92C647.38,-573.74 623.74,-561.63 600.64,-555.91 555.74,-544.81 539.57,-538.89 496.56,-555.91 464.84,-568.47 436.94,-595.03 417.24,-618"/>
<polygon fill="black" stroke="black" points="414.77,-615.51 411.07,-625.43 420.15,-619.98 414.77,-615.51"/>
<text xml:space="preserve" text-anchor="middle" x="548.6" y="-558.61" font-family="Times,serif" font-size="9.00">#/#,&gt;</text>
</g>
<!-- qNextStringC&#45;&gt;qNextStringC -->
<g id="edge35" class="edge">
<title>qNextStringC-&gt;qNextStringC</title>
<path fill="none" stroke="black" d="M689.24,-650.36C689.96,-661.39 694.15,-669.74 701.83,-669.74 706.62,-669.74 710.06,-666.48 712.14,-661.34"/>
<polygon fill="black" stroke="black" points="715.51,-662.35 714.11,-651.84 708.65,-660.92 715.51,-662.35"/>
<text xml:space="preserve" text-anchor="middle" x="701.83" y="-704.84" font-family="Times,serif" font-size="9.00">a/a,&gt;</text>
<text xml:space="preserve" text-anchor="middle" x="701.83" y="-694.04" font-family="Times,serif" font-size="9.00">b/b,&gt;</text>
<text xml:space="preserve" text-anchor="middle" x="701.83" y="-683.24" font-family="Times,serif" font-size="9.00">c/c,&gt;</text>
<text xml:space="preserve" text-anchor="middle" x="701.83" y="-672.44" font-family="Times,serif" font-size="9.00">d/d,&gt;</text>
</g>
<!-- qMarkEC&#45;&gt;qNextStringC -->
<g id="edge34" class="edge">
<title>qMarkEC-&gt;qNextStringC</title>
<path fill="none" stroke="black" d="M582.42,-608.71C601.27,-608.71 625.41,-608.71 646.97,-608.71"/>
<polygon fill="black" stroke="black" points="646.79,-612.21 656.79,-608.71 646.79,-605.21 646.79,-612.21"/>
<text xml:space="preserve" text-anchor="middle" x="629.55" y="-654.61" font-family="Times,serif" font-size="9.00">G/E,&gt;</text>
<text xml:space="preserve" text-anchor="middle" x="629.55" y="-643.81" font-family="Times,serif" font-size="9.00">a/E,&gt;</text>
<text xml:space="preserve" text-anchor="middle" x="629.55" y="-633.01" font-family="Times,serif" font-size="9.00">b/E,&gt;</text>
<text xml:space="preserve" text-anchor="middle" x="629.55" y="-622.21" font-family="Times,serif" font-size="9.00">c/E,&gt;</text>
<text xml:space="preserve" text-anchor="middle" x="629.55" y="-611.41" font-family="Times,serif" font-size="9.00">d/E,&gt;</text>
</g>
<!-- qCheckingD&#45;&gt;qGoBackToStart -->
<g id="edge43" class="edge">
<title>qCheckingD-&gt;qGoBackToStart</title>
<path fill="none" stroke="black" d="M401.12,-511.77C424.97,-573.85 473,-695.98 496.56,-735.71 500.03,-741.57 503.99,-747.48 508.14,-753.21"/>
<polygon fill="black" stroke="black" points="505.05,-754.93 513.85,-760.83 510.65,-750.73 505.05,-754.93"/>
<text xml:space="preserve" text-anchor="middle" x="468.15" y="-702.18" font-family="Times,serif" font-size="9.00">_/_,&lt;</text>
</g>
<!-- qCheckingD&#45;&gt;qCheckingD -->
<g id="edge41" class="edge">
<title>qCheckingD-&gt;qCheckingD</title>
<path fill="none" stroke="black" d="M370.64,-512.1C370.95,-523.66 376.08,-532.73 386.02,-532.73 392.4,-532.73 396.79,-529.01 399.21,-523.29"/>
<polygon fill="black" stroke="black" points="402.62,-524.07 401.12,-513.59 395.75,-522.72 402.62,-524.07"/>
<text xml:space="preserve" text-anchor="middle" x="386.02" y="-535.43" font-family="Times,serif" font-size="9.00">G/G,&gt;</text>
</g>
<!-- qNextStringD -->
<g id="node21" class="node">
<title>qNextStringD</title>
<ellipse fill="none" stroke="black" cx="701.83" cy="-428.71" rx="43.36" ry="43.36"/>
<text xml:space="preserve" text-anchor="middle" x="701.83" y="-425.71" font-family="Times,serif" font-size="10.00">qNextStringD</text>
</g>
<!-- qCheckingD&#45;&gt;qNextStringD -->
<g id="edge40" class="edge">
<title>qCheckingD-&gt;qNextStringD</title>
<path fill="none" stroke="black" d="M404.24,-438.65C422.16,-405.76 453.63,-359.26 496.56,-338.71 538.29,-318.74 557.45,-322.16 600.64,-338.71 626.2,-348.51 649.34,-368.17 666.92,-386.62"/>
<polygon fill="black" stroke="black" points="664.23,-388.86 673.57,-393.86 669.38,-384.13 664.23,-388.86"/>
<text xml:space="preserve" text-anchor="middle" x="548.6" y="-384.61" font-family="Times,serif" font-size="9.00">a/E,&gt;</text>
<text xml:space="preserve" text-anchor="middle" x="548.6" y="-373.81" font-family="Times,serif" font-size="9.00">b/E,&gt;</text>
<text xml:space="preserve" text-anchor="middle" x="548.6" y="-363.01" font-family="Times,serif" font-size="9.00">c/E,&gt;</text>
<text xml:space="preserve" text-anchor="middle" x="548.6" y="-352.21" font-family="Times,serif" font-size="9.00">d/G,&gt;</text>
<text xml:space="preserve" text-anchor="middle" x="548.6" y="-341.41" font-family="Times,serif" font-size="9.00">E/E,&gt;</text>
</g>
<!-- qMarkED -->
<g id="node22" class="node">
<title>qMarkED</title>
<ellipse fill="none" stroke="black" cx="548.6" cy="-476.71" rx="33.67" ry="33.67"/>
<text xml:space="preserve" text-anchor="middle" x="548.6" y="-473.71" font-family="Times,serif" font-size="10.00">qMarkED</text>
</g>
<!-- qCheckingD&#45;&gt;qMarkED -->
<g id="edge42" class="edge">
<title>qCheckingD-&gt;qMarkED</title>
<path fill="none" stroke="black" d="M426.31,-475.2C449.61,-475.49 479.2,-475.86 503.33,-476.16"/>
<polygon fill="black" stroke="black" points="503.12,-479.66 513.17,-476.29 503.21,-472.66 503.12,-479.66"/>
<text xml:space="preserve" text-anchor="middle" x="468.15" y="-478.53" font-family="Times,serif" font-size="9.00">#/#,&lt;</text>
</g>
<!-- qNextStringD&#45;&gt;qReject -->
<g id="edge47" class="edge">
<title>qNextStringD-&gt;qReject</title>
<path fill="none" stroke="black" d="M726.95,-464.28C748.36,-495.85 779.49,-541.73 800.88,-573.26"/>
<polygon fill="black" stroke="black" points="797.82,-575 806.33,-581.31 803.62,-571.07 797.82,-575"/>
<text xml:space="preserve" text-anchor="middle" x="769.56" y="-537.54" font-family="Times,serif" font-size="9.00">:/:,-</text>
</g>
<!-- qNextStringD&#45;&gt;qCheckingD -->
<g id="edge46" class="edge">
<title>qNextStringD-&gt;qCheckingD</title>
<path fill="none" stroke="black" d="M658.78,-421.52C617.07,-415.79 551.6,-410.56 496.56,-422.91 473.77,-428.03 450.14,-438.46 430.69,-448.62"/>
<polygon fill="black" stroke="black" points="429.11,-445.5 421.97,-453.32 432.43,-451.66 429.11,-445.5"/>
<text xml:space="preserve" text-anchor="middle" x="548.6" y="-425.61" font-family="Times,serif" font-size="9.00">#/#,&gt;</text>
</g>
<!-- qNextStringD&#45;&gt;qNextStringD -->
<g id="edge45" class="edge">
<title>qNextStringD-&gt;qNextStringD</title>
<path fill="none" stroke="black" d="M689.24,-470.59C689.96,-481.68 694.15,-490.08 701.83,-490.08 706.62,-490.08 710.06,-486.8 712.14,-481.63"/>
<polygon fill="black" stroke="black" points="715.52,-482.57 714.11,-472.07 708.66,-481.16 715.52,-482.57"/>
<text xml:space="preserve" text-anchor="middle" x="701.83" y="-525.18" font-family="Times,serif" font-size="9.00">a/a,&gt;</text>
<text xml:space="preserve" text-anchor="middle" x="701.83" y="-514.38" font-family="Times,serif" font-size="9.00">b/b,&gt;</text>
<text xml:space="preserve" text-anchor="middle" x="701.83" y="-503.58" font-family="Times,serif" font-size="9.00">c/c,&gt;</text>
<text xml:space="preserve" text-anchor="middle" x="701.83" y="-492.78" font-family="Times,serif" font-size="9.00">d/d,&gt;</text>
</g>
<!-- qMarkED&#45;&gt;qNextStringD -->
<g id="edge44" class="edge">
<title>qMarkED-&gt;qNextStringD</title>
<path fill="none" stroke="black" d="M580.94,-466.77C600.64,-460.52 626.53,-452.3 649.21,-445.1"/>
<polygon fill="black" stroke="black" points="650.13,-448.48 658.61,-442.12 648.02,-441.81 650.13,-448.48"/>
<text xml:space="preserve" text-anchor="middle" x="629.55" y="-500.05" font-family="Times,serif" font-size="9.00">G/E,&gt;</text>
<text xml:space="preserve" text-anchor="middle" x="629.55" y="-489.25" font-family="Times,serif" font-size="9.00">a/E,&gt;</text>
<text xml:space="preserve" text-anchor="middle" x="629.55" y="-478.45" font-family="Times,serif" font-size="9.00">b/E,&gt;</text>
<text xml:space="preserve" text-anchor="middle" x="629.55" y="-467.65" font-family="Times,serif" font-size="9.00">c/E,&gt;</text>
<text xml:space="preserve" text-anchor="middle" x="629.55" y="-456.85" font-family="Times,serif" font-size="9.00">d/E,&gt;</text>
</g>
<!-- qFinalCheckGood&#45;&gt;qAccept -->
<g id="edge54" class="edge">
<title>qFinalCheckGood-&gt;qAccept</title>
<path fill="none" stroke="black" d="M440.05,-53.71C460.57,-53.71 483.79,-53.71 503.39,-53.71"/>
<polygon fill="black" stroke="black" points="503.25,-57.21 513.25,-53.71 503.25,-50.21 503.25,-57.21"/>
<text xml:space="preserve" text-anchor="middle" x="468.15" y="-56.41" font-family="Times,serif" font-size="9.00">#/#,-</text>
</g>
<!-- qFinalCheckGood&#45;&gt;qFinalCheckGood -->
<g id="edge52" class="edge">
<title>qFinalCheckGood-&gt;qFinalCheckGood</title>
<path fill="none" stroke="black" d="M371.04,-105.61C372.45,-117.08 377.44,-125.43 386.02,-125.43 391.52,-125.43 395.55,-122 398.1,-116.52"/>
<polygon fill="black" stroke="black" points="401.43,-117.64 400.62,-107.07 394.66,-115.83 401.43,-117.64"/>
<text xml:space="preserve" text-anchor="middle" x="386.02" y="-128.13" font-family="Times,serif" font-size="9.00">G/G,&gt;</text>
</g>
<!-- qFinalCheckGood&#45;&gt;qFinalCheckNext -->
<g id="edge53" class="edge">
<title>qFinalCheckGood-&gt;qFinalCheckNext</title>
<path fill="none" stroke="black" d="M434.25,-77.59C448.84,-85.61 464.71,-95 478.56,-104.71 486.22,-110.09 494.01,-116.17 501.47,-122.35"/>
<polygon fill="black" stroke="black" points="499,-124.84 508.89,-128.63 503.52,-119.49 499,-124.84"/>
<text xml:space="preserve" text-anchor="middle" x="468.15" y="-150.61" font-family="Times,serif" font-size="9.00">E/E,&gt;</text>
<text xml:space="preserve" text-anchor="middle" x="468.15" y="-139.81" font-family="Times,serif" font-size="9.00">a/a,&gt;</text>
<text xml:space="preserve" text-anchor="middle" x="468.15" y="-129.01" font-family="Times,serif" font-size="9.00">b/b,&gt;</text>
<text xml:space="preserve" text-anchor="middle" x="468.15" y="-118.21" font-family="Times,serif" font-size="9.00">c/c,&gt;</text>
<text xml:space="preserve" text-anchor="middle" x="468.15" y="-107.41" font-family="Times,serif" font-size="9.00">d/d,&gt;</text>
</g>
<!-- qFinalCheckNext&#45;&gt;qReject -->
<g id="edge57" class="edge">
<title>qFinalCheckNext-&gt;qReject</title>
<path fill="none" stroke="black" d="M590,-196.51C633.93,-233.06 703.44,-296.94 745.19,-365.91 784.09,-430.18 806.41,-515.64 817.07,-566.15"/>
<polygon fill="black" stroke="black" points="813.61,-566.72 819.05,-575.81 820.47,-565.31 813.61,-566.72"/>
<text xml:space="preserve" text-anchor="middle" x="701.83" y="-368.61" font-family="Times,serif" font-size="9.00">:/E,-</text>
</g>
<!-- qFinalCheckNext&#45;&gt;qFinalCheck -->
<g id="edge56" class="edge">
<title>qFinalCheckNext-&gt;qFinalCheck</title>
<path fill="none" stroke="black" d="M509.83,-200.04C490.44,-215.76 465.51,-232.55 439.74,-240.71 383.48,-258.54 315.37,-246.27 270.51,-233.86"/>
<polygon fill="black" stroke="black" points="271.66,-230.55 261.08,-231.14 269.72,-237.27 271.66,-230.55"/>
<text xml:space="preserve" text-anchor="middle" x="386.02" y="-252.36" font-family="Times,serif" font-size="9.00">#/#,&gt;</text>
</g>
<!-- qFinalCheckNext&#45;&gt;qFinalCheckNext -->
<g id="edge55" class="edge">
<title>qFinalCheckNext-&gt;qFinalCheckNext</title>
<path fill="none" stroke="black" d="M533.89,-215.08C535.21,-226.45 540.12,-234.76 548.6,-234.76 554.04,-234.76 558,-231.34 560.5,-225.91"/>
<polygon fill="black" stroke="black" points="563.81,-227.11 562.94,-216.55 557.03,-225.34 563.81,-227.11"/>
<text xml:space="preserve" text-anchor="middle" x="548.6" y="-280.66" font-family="Times,serif" font-size="9.00">E/E,&gt;</text>
<text xml:space="preserve" text-anchor="middle" x="548.6" y="-269.86" font-family="Times,serif" font-size="9.00">a/E,&gt;</text>
<text xml:space="preserve" text-anchor="middle" x="548.6" y="-259.06" font-family="Times,serif" font-size="9.00">b/E,&gt;</text>
<text xml:space="preserve" text-anchor="middle" x="548.6" y="-248.26" font-family="Times,serif" font-size="9.00">c/E,&gt;</text>
<text xml:space="preserve" text-anchor="middle" x="548.6" y="-237.46" font-family="Times,serif" font-size="9.00">d/E,&gt;</text>
</g>
</g>
</svg>